<svg width="110" height="111" viewBox="0 0 110 111" fill="none" xmlns="http://www.w3.org/2000/svg"><path d="M75.444 59.117c1.627 4.777 3.236 9.56 4.857 14.339 1.403 4.135 2.893 8.238 4.341 12.36.516 1.465.978 2.943 1.451 4.424.167.521.313 1.04.406 1.582.39 2.247-.072 4.747-2.053 6.156-.79.56-1.699.882-2.59 1.24-1.117.447-2.237.888-3.36 1.32a231.943 231.943 0 01-6.863 2.523c-4.544 1.586-9.142 3.016-13.802 4.214-.608.158-1.221.342-1.841.456-.063.012-.322.047-.14.023-.137.018-.274.033-.411.048a11.43 11.43 0 01-2.602-.039c-1.174-.158-2.324-.533-3.313-1.191-1.207-.805-2.014-2.018-2.485-3.373-3.28-9.437-6.538-18.88-9.565-28.4-3.027-9.52-5.956-19.165-8.909-28.756L24.131 31.63a305.857 305.857 0 00-1-3.2c-.025-.075.07.178.002.009-.033-.087-.069-.173-.101-.26a18.058 18.058 0 01-.668-2.11c-.485-1.918-.82-4.272.185-6.084.57-1.028 1.544-1.662 2.66-1.963 1.118-.301 2.23-.462 3.338-.656 1.213-.214 2.428-.408 3.647-.59 4.86-.715 9.759-1.117 14.624-1.808 1.997-.283 4.029-.641 6.05-.692.607-.014 1.066.051 1.62.164 2.744.566 4.94 2.351 6.153 4.872 1.049 2.181 1.886 4.493 2.786 6.743.9 2.25 1.815 4.595 2.694 6.904a516.85 516.85 0 012.52 6.764c.245.67 1.326.381 1.08-.298a485.856 485.856 0 00-5.492-14.356 380.522 380.522 0 00-1.472-3.606c-.426-1.03-.817-2.097-1.338-3.087a9.85 9.85 0 00-3.236-3.611c-1.517-1.007-3.448-1.642-5.283-1.609-1.976.036-3.972.39-5.924.667-2.526.358-5.06.63-7.595.915-2.497.283-4.994.59-7.479.957-1.278.187-2.556.393-3.832.62-1.1.196-2.237.348-3.307.667-1.24.37-2.333 1.096-3.033 2.196-.617.968-.867 2.13-.915 3.266-.087 1.966.387 3.978 1.064 5.813.336.912.613 1.826.902 2.762.757 2.461 1.514 4.925 2.274 7.387 3.04 9.88 6.058 19.767 9.13 29.636a977.222 977.222 0 009.678 29.361l1.251 3.614c.379 1.091.706 2.217 1.165 3.275a7.419 7.419 0 002.846 3.337c1.85 1.159 4.171 1.484 6.317 1.282.864-.081 1.671-.304 2.514-.519a158.745 158.745 0 007.292-2.059c4.716-1.451 9.368-3.105 13.968-4.884 1.18-.455 2.354-.92 3.528-1.391.88-.355 1.737-.703 2.497-1.284a6.227 6.227 0 002.253-3.37c.47-1.78.253-3.683-.304-5.414-1.085-3.38-2.274-6.713-3.468-10.054-1.663-4.64-3.204-9.323-4.783-13.992-.801-2.375-1.606-4.747-2.413-7.122-.23-.676-1.311-.387-1.079.298l-.003-.003z" fill="#000"/><path d="M35.068 20.516c3.972-.635 7.94-1.266 11.913-1.901.396-.063.62-.56.52-.918-.115-.423-.517-.584-.917-.521l-11.913 1.9c-.396.063-.62.56-.521.918.116.424.519.584.918.522zM9.546 14.408c-1.934-1.064-3.87-2.128-5.804-3.195-.84-.461-1.594.823-.751 1.288 1.934 1.063 3.87 2.127 5.804 3.194.84.462 1.594-.823.751-1.287zm7.738-7.328L15.422.525c-.262-.92-1.698-.53-1.436.396l1.862 6.556c.262.92 1.699.53 1.436-.397zM8.318 26.678c-2.577.357-5.16.69-7.773 1.114-.397.066-.62.56-.522.918.116.423.519.584.918.521 1.174-.188 2.348-.378 3.525-.54a1.08 1.08 0 00.086-.011l.093-.012c.125-.018.253-.033.378-.05.283-.04.563-.075.846-.114.95-.128 1.898-.256 2.849-.387.399-.057.617-.566.521-.918-.119-.429-.515-.575-.918-.521h-.003z" fill="#000"/><path d="M86.722 96.852c-.63 1.084-1.585 1.96-2.768 2.532-.817.394-1.69.727-2.533 1.049-.307.116-.617.235-.92.355-1.255.491-2.5.971-3.708 1.424-2.56.959-5.074 1.853-7.479 2.658a172.891 172.891 0 01-7.577 2.345c-1.27.36-2.556.709-3.829 1.034-.152.038-.307.08-.462.122-.41.11-.834.223-1.251.295-2.065.351-4.172.134-5.927-.611a7.25 7.25 0 01-3.334-2.81c-.485-.772-.786-1.651-1.078-2.497l-.096-.28-1.126-3.254-.218-.625c-3.873-11.18-7.24-21.391-10.297-31.218-2.333-7.5-4.675-15.134-6.943-22.518-.933-3.036-1.862-6.07-2.798-9.102l-1.219-3.963c-.104-.34-.202-.683-.303-1.029a32.42 32.42 0 00-.576-1.856 23.804 23.804 0 00-.24-.646 17.677 17.677 0 01-.388-1.094c-.853-2.804-.96-5.027-.337-6.803.43-1.212 1.252-2.195 2.321-2.765.751-.399 1.553-.58 2.447-.756 1.266-.25 2.61-.492 4.001-.716 3.03-.488 6.132-.84 9.13-1.183 2.282-.259 4.64-.527 6.954-.855.471-.065.945-.137 1.419-.208 1.457-.22 2.964-.444 4.445-.537v-.298c-2.747-.196-5.926.209-7.827.45l-1.225.152c-2.982.36-10.902 1.317-20.357 2.917-1.993.337-3.465 1.222-4.371 2.625-1.72 2.667-.813 6.231-.769 6.389 3.23 9.475 6.189 19.153 9.32 29.4 2.861 9.36 5.784 18.891 8.937 28.286a.444.444 0 01.068-.083l.093-.093a.558.558 0 01.247-.143c.05-.005.098-.011.149-.02.101 0 .194.026.283.077.039.03.074.06.113.086.054.051.092.11.116.18.036.065.05.136.048.214a.437.437 0 01-.048.214.415.415 0 01-.116.18l-.092.091a.558.558 0 01-.248.144 2.54 2.54 0 00-.149.02.535.535 0 01-.181-.035 496.71 496.71 0 002.25 6.537c.485-.16.97-.325 1.456-.486.298-.098.6.116.689.39a.555.555 0 01-.39.686c-.46.152-.918.307-1.38.459.771 2.16 1.555 4.311 2.36 6.442.5-.265.986-.56 1.448-.888.253-.182.614-.036.765.2a.57.57 0 01.057.429.598.598 0 01-.256.333 12.69 12.69 0 01-1.612.978c.697 1.832 1.41 3.656 2.136 5.461.584-.295 1.165-.593 1.75-.888a.574.574 0 01.765.2c.158.244.06.632-.2.766-.625.319-1.254.638-1.88.956-.006 0-.009.006-.015.009.01.021.018.045.027.066.024.08.581 2.011 3.09 3.361 1.672.9 3.677 1.248 5.78 1.248 3.323 0 6.896-.87 9.786-1.808a601.53 601.53 0 017.029-2.226c10.244-3.191 15.885-4.949 17.318-9.35l.438-1.347-.71 1.225-.002.005z" fill="#000"/><path d="M60.144 93.017l1.368 3.966.67 1.948c.2.578.352 1.222.664 1.752.29.489.77.811 1.35.79.638-.021 1.29-.331 1.89-.524l4.016-1.3c.658-.211 1.314-.426 1.972-.637.32-.102.632-.236.823-.528.33-.5.042-1.042-.134-1.546l-.686-1.946c-.458-1.299-.882-2.616-1.38-3.903-.196-.507-.473-1.302-1.066-1.46-.298-.08-.61.033-.897.104-.336.087-.673.17-1.01.256-1.502.382-3.003.76-4.496 1.162-.727.197-1.454.4-2.178.611-.632.185-1.09.519-.903 1.249.188.73 1.257.402 1.079-.298.047.19-.358.268.053.146.188-.054.373-.11.56-.164a123.318 123.318 0 013.314-.897 607.769 607.769 0 013.277-.834c.325-.084.724-.26 1.058-.239l-.283-.077c.25.125.396.67.486.918.149.405.286.813.429 1.218.286.81.572 1.621.855 2.432.283.81.572 1.62.855 2.431.018.054.072.241.105.286.026.039.041-.068.035-.08 0-.006-.113.056-.035.023-.25.11-.534.173-.793.257l-5 1.618c-.4.128-.798.259-1.198.387-.238.078-.72.325-.968.173-.215-.131-.301-.492-.376-.712l-.456-1.323-1.918-5.566c-.233-.677-1.314-.385-1.08.298l-.002.009z" fill="#000"/><path d="M67.34 91.247c-.731.184-1.464.372-2.194.56-.73.19-1.46.381-2.187.581-.376.104-.75.209-1.126.316a22.87 22.87 0 00-.56.164l1.868 5.417.456 1.323c.077.22.163.581.375.712.247.152.73-.095.968-.173.4-.128.799-.26 1.198-.387l5-1.618c.253-.08.525-.143.772-.248-.03-.074-.066-.193-.08-.238-.287-.81-.573-1.62-.856-2.431-.286-.81-.572-1.621-.855-2.432-.143-.405-.283-.813-.429-1.219-.078-.211-.197-.634-.381-.834-.292.033-.614.164-.882.233l-1.085.274h-.003z" fill="#5ED085"/><path d="M83.855 30.113c-2.133 3.204-4.836 6.01-7.881 8.358a39.485 39.485 0 01-10.14 5.647 38.353 38.353 0 01-6.257 1.767c-.239.044-.465-.179-.489-.402-.024-.26.164-.441.402-.49 3.695-.708 7.288-2.007 10.605-3.783 3.325-1.782 6.412-4.044 9.058-6.737a33.617 33.617 0 004.017-4.938c.134-.2.459-.196.628-.053.203.17.188.429.054.628l.003.003zm4.274 29.821a28.833 28.833 0 00-9.35-2.911 28.86 28.86 0 00-9.723.378 28.533 28.533 0 00-5.26 1.663c-.53.223-.84-.614-.312-.837a29.643 29.643 0 0125.026.9c.51.259.131 1.069-.381.807z" fill="#000"/><path d="M88.91 59.513c.285.564.753 1.013 1.248 1.392.494.378 1.049.742 1.638.965.558.212 1.198.298 1.78.152.58-.146 1.048-.521 1.415-.986.393-.5.658-1.09.882-1.684.262-.69.459-1.403.599-2.127.289-1.478.342-2.989.25-4.49-.188-3.063-.933-6.064-1.684-9.029-.706-2.792-1.492-5.572-2.586-8.242a30.85 30.85 0 00-1.86-3.825c-.712-1.228-1.42-2.366-2.535-3.174-.456-.33-1.01-.587-1.582-.599-.572-.012-1.043.191-1.457.534-.799.664-1.186 1.785-1.416 2.768-.685 2.92-.733 6.013-.462 8.99.14 1.537.373 3.063.683 4.573.039.19.077.382.12.57l.053.244.03.13.017.072a115.422 115.422 0 001.576 5.313c.755 2.33 1.574 4.645 2.56 6.889.23.524.47 1.046.727 1.561.107.218-.053.498-.262.575-.244.093-.468-.044-.575-.262-1.135-2.294-2.03-4.705-2.849-7.127a111.49 111.49 0 01-1.758-5.7 37.626 37.626 0 01-1.078-5.513c-.394-3.182-.4-6.436.164-9.6.22-1.23.545-2.485 1.29-3.51s1.993-1.618 3.263-1.323c1.4.325 2.49 1.451 3.289 2.586.852 1.21 1.558 2.545 2.187 3.883 1.278 2.723 2.178 5.61 2.95 8.513.81 3.05 1.618 6.144 1.97 9.287.178 1.594.223 3.212.047 4.81-.176 1.596-.542 3.083-1.233 4.457-.623 1.242-1.654 2.303-3.114 2.39-1.433.083-2.771-.677-3.838-1.568a5.021 5.021 0 01-1.287-1.585c-.11-.214.053-.497.262-.575.247-.092.465.048.575.262v.003z" fill="#000"/><path d="M93.474 60.652c.873-.453 1.329-1.427 1.57-2.336.295-1.1.397-2.262.456-3.394.078-1.481-.098-2.974-.322-4.437a67.106 67.106 0 00-.685-3.772 66.993 66.993 0 00-1.987-7.297c-.727-2.175-1.556-4.353-2.673-6.362-.438-.787-.92-1.558-1.505-2.247-.334-.393-.787-.703-1.254-.92-.212-.099-.376-.161-.552-.12-.16.04-.336.165-.48.302-.375.354-.697.828-.932 1.28-.328.627-.432 1.333-.504 2.027a30.51 30.51 0 00-.128 4.175c.099 2.765.534 5.518 1.198 8.203.668 2.693 1.55 5.327 2.539 7.916.54 1.41 1.055 2.855 1.746 4.199l.054.104.023.042.14.256c.096.17.197.34.302.504.211.34.443.667.7.974a4.055 4.055 0 00.867.793c.018.011-.039-.021.032.02.078.042.153.087.233.123l.101.044c.033.015.128.045.039.018.08.024.16.045.244.057.036.006.072.009.105.012.086.012-.066.003.02 0 .078 0 .155-.006.233-.018.03-.006.134-.03.05-.006a1.963 1.963 0 00.37-.14c.218-.107.498.053.575.262.092.244-.045.468-.262.575-1.648.814-3.114-.786-3.93-2.035-.704-1.076-1.195-2.247-1.675-3.43-1.079-2.672-2.074-5.38-2.86-8.155-.787-2.774-1.389-5.658-1.63-8.557a34.36 34.36 0 01-.084-4.431c.069-1.478.117-3.037.927-4.3.602-.936 1.442-2.056 2.7-1.6 1.057.384 1.814 1.21 2.44 2.11 1.284 1.847 2.19 3.968 2.983 6.066.935 2.485 1.69 5.042 2.309 7.622.298 1.24.566 2.488.792 3.743.269 1.49.519 2.991.614 4.505a20.29 20.29 0 01-.181 4.106c-.161 1.147-.444 2.327-1.133 3.28a3.532 3.532 0 01-1.27 1.073c-.214.11-.497-.056-.574-.262-.093-.25.047-.462.262-.575l-.003.003zm-33.417-3.963c-.3-.846-.605-1.695-.909-2.542-.226-.628-.473-1.254-.661-1.895a10.33 10.33 0 01-.39-2.19c-.09-1.24.02-2.5.283-3.712.137-.635.306-1.279.55-1.878l.561.611c-2.175.581-4.35 1.171-6.526 1.761-2.705.73-5.41 1.463-8.116 2.193-1.043.28-2.083.563-3.126.84l.185-.13c-.033.032-.063.07-.092.107a4.758 4.758 0 00-.099.128l-.053.074c-.024.033-.117.182-.033.045a6.321 6.321 0 00-.608 1.302c-.042.128.027-.09-.015.045l-.03.101a3.41 3.41 0 00-.062.236 8.232 8.232 0 00-.23 1.698 11.374 11.374 0 00.423 3.224c.286 1.049.686 2.154 1.231 3.135.212.378.444.742.706 1.087.108.14.22.28.337.411.066.075.036.042.104.113.06.06.116.123.179.18a5.68 5.68 0 00.777.631c.09.06-.086-.05.004 0a3.49 3.49 0 00.349.194c.133.065.27.119.407.172.117.045-.104-.023-.014-.003l.062.018c.036.01.075.018.11.027.018.003.04.01.057.01-.14-.01-.033-.022.02-.034l.299-.062c.536-.113 1.075-.227 1.612-.337 1.287-.268 2.574-.524 3.868-.754.238-.041.464.176.488.403.024.256-.164.446-.402.488-1.103.194-2.2.411-3.296.635-.5.101-.998.205-1.498.31-.367.077-.751.2-1.124.235-.184.018-.402-.068-.569-.125a4.293 4.293 0 01-.983-.513c-1.183-.792-2.005-2.05-2.61-3.313-.906-1.889-1.493-4.058-1.425-6.165.04-1.245.301-2.53.945-3.611.134-.224.277-.456.453-.647.122-.13.262-.17.429-.214.217-.06.435-.117.653-.176l8.232-2.223c2.694-.727 5.385-1.457 8.078-2.181.194-.054.39-.104.584-.155.379-.101.715.232.56.61-.05.126-.095.251-.137.38-.015.038-.074.232-.038.11-.027.083-.051.17-.078.253-.056.196-.11.396-.158.596a12.519 12.519 0 00-.366 3.36c.023.689.104 1.386.27 2.057.168.67.43 1.332.665 1.99l.408 1.141c.197.546.39 1.09.584 1.64.194.547-.643.854-.837.312l.012-.003z" fill="#000"/><path d="M51.222 61.495c-1.293.227-2.583.486-3.867.754-.536.11-1.076.224-1.612.337l-.298.063a.505.505 0 00-.09.02 1.206 1.206 0 01-.1-.023l-.052-.015a4.01 4.01 0 01-.405-.17 8.25 8.25 0 01-.348-.194l-.132-.09a5.613 5.613 0 01-.646-.541l-.179-.18c-.068-.07-.039-.038-.104-.113a8.8 8.8 0 01-.337-.41 9.281 9.281 0 01-.706-1.088c-.545-.978-.939-2.056-1.23-3.135a11.433 11.433 0 01-.424-3.224 7.78 7.78 0 01.114-1.138 8.9 8.9 0 01.116-.56l.062-.236.03-.101c.003-.012.006-.015.006-.02 0-.007.003-.013.009-.022a6.27 6.27 0 01.587-1.266 1.27 1.27 0 01.054-.08l.053-.075c.033-.045.066-.086.099-.128 1.01-.271 2.02-.542 3.03-.817 2.705-.73 5.411-1.463 8.117-2.193 1.892-.512 3.784-1.022 5.676-1.531a14.13 14.13 0 00-.263 1.04 13.171 13.171 0 00-.282 3.712c.053.742.184 1.478.39 2.19.188.641.435 1.267.661 1.895.304.847.605 1.693.91 2.542a.452.452 0 00.047.099l-9.07 2.148.67 2.613-.155.05a.4.4 0 00-.328-.1l-.003-.013z" fill="#FF496C"/><path d="M61.845 77.189c-2.365-2.453-4.1-5.456-5.17-8.686-.303-.92-.554-1.86-.756-2.807l.602.376c-1.046.369-2.465.417-3.326-.382-.354-.328-.563-.742-.706-1.198a24.133 24.133 0 00-.456-1.314c-.336-.9-.706-1.788-1.087-2.67a64.79 64.79 0 00-.656-1.469c-.13-.283.116-.55.376-.601 1.129-.215 2.258-.433 3.388-.647l5.375-1.025c.414-.078.828-.158 1.24-.235.175-.033.417.11.461.289.027.1.069.2.11.295.015.032.105.2.033.074a3.288 3.288 0 00.393.563 3.361 3.361 0 00.304.286c.188.155.301.23.504.337.483.256 1.004.381 1.547.441.473.054.45.688.08.858-.101.048-.2.096-.298.15.086-.046-.048.026-.069.038a7.132 7.132 0 00-.477.283c-.217.14-.443.307-.571.447-.036.039-.069.08-.099.122.054-.075-.009.027-.024.054.015-.03 0-.084.01-.024.005.062.011 0 0-.057a.456.456 0 01.005.09c.006.098 0 .008 0 .008.012.036.021.075.033.11.03.093.063.185.101.275.087.217.185.432.283.643.224.486.46.966.662 1.46.164.4.346.847.343 1.285 0 .16-.027.512-.197.599-.057.03.057-.096.03-.045-.042.078.003-.095.009-.039 0 .021-.01.054-.012.075 0 .012 0 .03-.003.041-.018.072-.01-.107 0-.03.02.162.024.322.05.48.045.25.057.287.129.549.14.512.306 1.016.488 1.513a33.009 33.009 0 001.383 3.29l.053.107c.01.021.021.039.03.06.05.098-.044-.084.003.009.102.184.239.426.36.494-.044-.023.03.015.043.015.068.015-.072-.015-.007 0 .024.003.048.01.072.012.066.01-.077.006-.012 0 .018 0 .152-.02.104-.012-.056.012.018-.006.033-.009l.087-.026c.208-.072.41-.167.634-.191.46-.054.942.232 1.001.712.036.286-.083.596-.19.855-.322.775-.835 1.49-1.359 2.14-.599.741-1.29 1.463-2.098 1.975-.67.426-1.534.76-2.309.396-.176-.083-.34-.2-.477-.336-.17-.17-.217-.435-.053-.63.146-.172.459-.226.628-.053.06.06.123.11.191.164.057.045-.077-.033.027.015.039.018.077.039.116.057.09.041.039.012.021.009.036.005.075.017.11.023l.099.015c.122.018-.072.012.053 0 .08-.006.158-.012.239-.023.02 0 .041-.01.06-.012 0 0-.087.02-.037.008a2.29 2.29 0 00.39-.134c.042-.017.084-.038.129-.06.11-.053-.012.013.074-.038.817-.468 1.386-1.037 1.988-1.752a12.559 12.559 0 00.876-1.177c-.045.072-.01.015 0 0l.071-.113a7.136 7.136 0 00.402-.739c.03-.069.06-.134.087-.206.012-.033.02-.062.036-.095.035-.092-.024.104 0-.009l.035-.158c.004-.018 0-.054.01-.069-.021.033.005.132-.004.042-.008-.077.003.012.015.048-.023-.072.021.02.033.048-.012-.03-.006-.033 0 0-.003-.012-.045-.036-.056-.045.032.024.026.033.035.024.015-.018.033.027-.018 0-.047-.024.084-.006.027 0-.018 0-.146.02-.09.009.057-.012-.074.024-.091.03a2.356 2.356 0 00-.153.056c-.518.19-1.057.235-1.474-.194-.322-.33-.513-.783-.71-1.194a33.546 33.546 0 01-1.236-2.971 20.512 20.512 0 01-.489-1.502c-.11-.4-.223-.813-.244-1.23a1.431 1.431 0 01.033-.45.766.766 0 01.134-.286c.012-.015.06-.084.012-.01-.042.066-.015.024-.006.007.032-.069-.012.023-.012.044 0-.027.009-.068.015-.092-.024.122 0 .036-.006-.015l-.015-.122c-.003-.021-.01-.045-.012-.066-.015-.083.012.048 0-.006a5.5 5.5 0 00-.218-.646c-.193-.489-.423-.963-.646-1.44-.176-.378-.373-.762-.477-1.17-.137-.528.08-.918.474-1.27.393-.351.852-.608 1.314-.846.09-.045.176-.09.265-.131l.08.858c-1.105-.122-2.16-.557-2.905-1.403-.286-.325-.56-.74-.667-1.166l.462.29c-1.13.214-2.259.432-3.388.646-1.791.343-3.585.683-5.375 1.025l-1.24.235.375-.601a62.831 62.831 0 011.502 3.513c.173.44.34.885.495 1.332.128.37.217.819.41 1.138.177.292.38.453.671.578a1.413 1.413 0 00.176.062 2.655 2.655 0 00.554.08c-.098-.002.072 0 .09 0 .298-.002.59-.044.882-.106.062-.012-.107.026-.018.003.033-.01.063-.015.095-.024.039-.01.078-.021.113-.033.036-.012.072-.02.108-.036.298-.104.539.096.602.376.676 3.158 1.97 6.21 3.876 8.823.53.73 1.112 1.424 1.737 2.073.167.173.22.432.054.629-.143.17-.462.227-.629.054l-.012.006z" fill="#000"/><path d="M66.75 73.616c-.028.047-.012.019 0 0z" fill="#000"/><path d="M60.557 64.222c-.134-.6-.256-1.231-.172-1.845.101-.75.61-1.421 1.31-1.674-.008.122 0 .247.036.384.108.405.301.79.477 1.171.22.477.45.95.647 1.44.083.21.16.425.217.646v.006c.003.02.01.041.012.065l.015.122v.073a.77.77 0 00-.13.283 1.52 1.52 0 00-.034.45c.021.414.134.831.245 1.23.14.507.31 1.008.488 1.502a32.658 32.658 0 001.237 2.971c.197.411.387.864.709 1.195.42.429.956.387 1.475.194.05-.018.101-.04.152-.057l.09-.027c.008 0 .023 0 .041-.006l-.024.108v.005l-.036.096a4.467 4.467 0 01-.086.205 6.056 6.056 0 01-.402.739c-.024.04-.048.075-.072.114v.005c-.012.021-.027.042-.041.063a12.68 12.68 0 01-.582.796.419.419 0 00-.068.041c-.098.072-.122.093-.2.084-.119-.012-.223-.072-.336-.122a2.43 2.43 0 01-.751-.534c-.438-.447-.808-.983-1.147-1.507-1.279-1.967-2.038-4.223-2.634-6.475a44.149 44.149 0 01-.43-1.728l-.006-.012zm6.878 8.128v.007s0-.007-.003-.01l.003.003zm-.042-.13s-.003.015-.003.024v-.006c0-.006 0-.013.006-.019h-.003zM50.88 46.606c-.036-.313-.331-.546-.638-.614-.307-.069-.626-.006-.936.053l-3.828.76a.607.607 0 00-.26.096c-.137.107-.152.31-.125.485.042.277.161.543.337.76" fill="#000"/><path d="M50.436 46.647c-.066-.375-.786-.214-1.007-.172-.593.113-1.183.235-1.773.351-.59.116-1.159.23-1.74.346-.125.024-.277.083-.402.08-.036 0 .032-.035.026-.06.007.025 0 .084 0 .114.018.215.132.411.263.578.354.456-.379.965-.73.513-.385-.495-.718-1.487-.045-1.901.176-.11.387-.135.59-.173.203-.04.405-.08.608-.123l1.174-.232c.76-.152 1.531-.36 2.3-.44.769-.081 1.496.243 1.63 1.03.042.238-.176.465-.402.489-.256.024-.447-.164-.489-.403l-.003.003zm33.691 11.201a41.913 41.913 0 01-1.505-4.457c-.065-.233.024-.486.263-.575.211-.078.51.03.575.262.42 1.513.92 3 1.504 4.457.215.537-.622.847-.837.313zm-3.307-.93a7.724 7.724 0 01-.668-2.029c-.042-.23.175-.477.402-.489.26-.011.44.155.489.403a6.206 6.206 0 00.044.226l.015.063.03.122c.042.158.09.316.14.47.107.317.235.623.381.922.048.098.03.253-.015.345a.46.46 0 01-.247.227c-.25.08-.462-.04-.575-.263l.003.003zm-3.126-.086a1.265 1.265 0 01-.197-.132c-.06-.05-.11-.107-.158-.163a1.2 1.2 0 01-.184-.31 1.176 1.176 0 01-.063-.715.481.481 0 01.182-.29.455.455 0 01.334-.074c.11.024.223.083.289.182.065.098.104.22.074.334a.669.669 0 00-.02.151l.005-.119c0 .066.006.131.021.194l-.027-.113a.888.888 0 00.072.193l-.054-.1c.03.056.069.11.113.16l-.077-.083c.042.044.09.086.14.119l-.098-.063.026.018c.054.024.102.06.138.104a.33.33 0 01.092.143.448.448 0 01-.015.346.46.46 0 01-.247.227c-.11.035-.245.044-.346-.015v.006zm6.91-23.459a30.51 30.51 0 00-.129 4.175c.099 2.765.534 5.518 1.198 8.203.668 2.693 1.55 5.327 2.539 7.916.54 1.41 1.055 2.855 1.746 4.199l.045.086c.006.012.027.048.033.063.044.086.092.17.14.256.095.17.196.34.3.504.212.34.445.667.7.974a4.176 4.176 0 00.865.793c.003.002.006.002 0 0 .006 0 .015.008.033.017.077.042.152.087.232.123l.101.044.066.024c.072.021.143.039.218.05.035.007.071.01.104.013h.024c.077 0 .155-.006.232-.018.02 0 .069-.015.08-.015a1.983 1.983 0 00.34-.131c.873-.453 1.33-1.427 1.57-2.336.295-1.1.397-2.262.456-3.394.078-1.481-.098-2.974-.322-4.437a67.015 67.015 0 00-.685-3.772 66.986 66.986 0 00-1.987-7.297c-.727-2.175-1.556-4.353-2.673-6.362-.438-.787-.92-1.558-1.505-2.247-.333-.393-.786-.703-1.254-.92-.212-.099-.379-.161-.551-.12-.161.04-.337.165-.48.302-.376.354-.697.828-.933 1.28-.328.627-.432 1.333-.503 2.027zm.512 7.705c2.488-.226 5.009 1.544 5.638 3.96.631 2.417-1.925 8.475-2.983 6.213-2.574-5.515-2.658-10.173-2.658-10.173h.003zm-18.54 34.159c-.55.411-1.182.209-1.725-.11-.599-.355-1.04-.912-1.45-1.46-.797-1.067-1.431-2.25-1.947-3.475-.515-1.224-.911-2.476-1.254-3.748a52.306 52.306 0 01-.5-2.014c-.165-.721-.293-1.466-.191-2.205.205-1.514 1.52-2.572 3.03-2.509.241.009.402.301.364.515-.045.266-.275.373-.516.364-1.034-.042-1.862.802-1.996 1.782-.084.614.038 1.248.172 1.844.134.596.278 1.156.43 1.728.596 2.253 1.355 4.509 2.633 6.475.34.525.71 1.061 1.148 1.508.223.23.462.4.75.533.114.051.221.11.337.123.078.009.102-.01.2-.084.462-.343.974.387.512.73l.003.003zm-6.852-20.059c-1.475.352-2.95.706-4.428 1.058-.236.056-.483-.018-.575-.262-.078-.206.026-.519.262-.575 1.475-.352 2.95-.707 4.428-1.058.235-.057.482.018.575.262.077.206-.027.518-.262.575zm-.763-1.913l-2.983.447c-.232.036-.476-.17-.488-.402a.46.46 0 01.402-.489l2.983-.447c.232-.036.477.17.488.402a.46.46 0 01-.402.49zm38.185-23.644a29.256 29.256 0 004.296-4.547c.349-.455 1.031.12.683.575a30.17 30.17 0 01-4.467 4.7c-.184.154-.491.077-.623-.108-.148-.211-.074-.465.108-.623l.003.003zm12.144 12.015l-4.773 1.731c-.542.197-.852-.64-.313-.837l4.773-1.731c.543-.197.853.64.313.837zm-2.175 15.634a1906.02 1906.02 0 00-3.328-1.937c-.209-.122-.322-.363-.212-.596.096-.202.385-.334.596-.211 1.109.646 2.22 1.293 3.328 1.936.209.123.322.364.212.596-.095.203-.384.334-.596.212z" fill="#000"/></svg>