<svg width="118" height="101" viewBox="0 0 118 101" fill="none" xmlns="http://www.w3.org/2000/svg"><path d="M79.495 51.74c-.082-1.737-.174-3.47-.263-5.208l-.513-10.231c-.201-3.974-.399-7.952-.6-11.926-.174-3.441-.345-6.886-.519-10.327l-.266-5.323c-.014-.253-.043-.48-.178-.71a1.256 1.256 0 00-.96-.625c-.034 0-.36.02-.313.01-.333.046-.662.105-.994.154l-5.468.859c-2.977.467-5.951.937-8.928 1.405l-11.064 1.74c-3.958.622-7.919 1.244-11.877 1.869-3.8.598-7.6 1.194-11.399 1.793-3.171.5-6.343.996-9.514 1.496-2.119.333-4.24.668-6.36 1-.52.083-1.036.165-1.556.244-.105.016-.21.03-.312.05-.684.121-1.178.575-1.184 1.299.062 3.645.17 7.287.309 10.932.296 7.711.727 15.416 1.171 23.118.112 1.911.22 3.823.332 5.734.083 1.428-.059 3.03.964 4.172a3.538 3.538 0 003.152 1.151c.836-.115 1.668-.263 2.504-.395 4.599-.73 9.198-1.47 13.794-2.22 5.971-.974 11.939-1.968 17.903-2.981a1773.346 1773.346 0 0019.068-3.34 1068.048 1068.048 0 0011.304-2.108c.566-.108 1.181-.148 1.547-.648.217-.303.243-.638.226-.99l-.006.006zm-31.652-8.659l-13.81 2.063-2.419.362-.404-6.797c-.023-.362-.043-.727-.066-1.089a.608.608 0 00-.161-.388l.424-.362-12.156 1.816c-.806.122-1.612.24-2.418.362-.099-1.632-.194-3.26-.293-4.892l-.53-8.88-.092-1.526c6.626-.944 13.21-2.109 19.815-3.181 1.553-.253 3.11-.487 4.669-.714l.292 4.977c.076 1.303.155 2.606.23 3.909l.603-.513a.627.627 0 00.602.22c4.349-.73 8.692-1.494 13.057-2.132.099 1.658.194 3.316.293 4.975.178 3 .352 6.003.53 9.004l.092 1.553-8.255 1.233h-.003z" fill="#64D6DF"/><path d="M73.625 1.87c-1.431.213-2.862.43-4.296.644-2.211.333-4.422.665-6.633.994-2.773.414-5.547.832-8.32 1.247-3.122.467-6.244.937-9.363 1.404-3.257.487-6.51.978-9.767 1.464-3.178.477-6.353.954-9.531 1.428-2.885.431-5.77.865-8.652 1.296l-7.11 1.066-4.987.747c-.73.109-1.464.207-2.191.33-.711.118-1.152.588-1.122 1.322.013.302.03.605.046.908l.237 4.681.385 7.554c.158 3.092.312 6.185.47 9.277l.497 9.807c.158 3.093.312 6.185.47 9.277l.385 7.554c.08 1.56.158 3.122.237 4.682.017.302.03.602.046.904v.053c0 .016 0 .033.003.05 0-.017.04.174.046.203.056.214.129.425.22.625a7.5 7.5 0 00.712 1.234 4.644 4.644 0 01-.35-1.184c-.13-.826-.15-1.662-.187-2.494-.052-1.214-.108-2.428-.16-3.645-.185-4.155-.37-8.314-.55-12.469L3.498 35.85c-.18-4.082-.362-8.162-.54-12.244l-.154-3.471c-.05-1.148-.066-2.27.369-3.372a6.498 6.498 0 013.832-3.764c1.033-.378 2.188-.467 3.267-.645 1.24-.207 2.484-.408 3.728-.608 4.99-.803 9.988-1.563 14.985-2.303 9.988-1.477 19.99-2.876 29.974-4.382 5-.754 9.998-1.537 14.985-2.37l1.944-.325c.543-.092 1.1-.227 1.649-.237.131 0 .263.004.391.017a5.736 5.736 0 00-1.391-.45c-.978-.182-1.945.025-2.912.17v.003z" fill="#04101B"/><path d="M80.136 57.52l-3.688.671-9.58 1.747-13.166 2.398-14.68 2.675c-4.631.845-9.267 1.688-13.899 2.533-3.615.658-7.23 1.32-10.846 1.977l-5.695 1.037-.346.062c-.082.016-.16.04-.243.046a1.786 1.786 0 01-.398-.003.852.852 0 01-.303-.125c-.125-.089-.233-.207-.375-.5-.079-.162-.184-.556-.24-.846-.125-.661-.125-1.48-.158-2.22l-.398-9.024c-.207-4.721-.418-9.446-.625-14.167l-.628-14.208-.405-9.15c-.033-.717-.122-1.49.006-2.2a4.806 4.806 0 012.807-3.567c.918-.398 1.974-.467 2.95-.631 1.241-.208 2.485-.412 3.728-.612 9.866-1.593 19.76-3.014 29.648-4.442 9.867-1.424 19.733-2.862 29.57-4.487 1.217-.2 2.43-.405 3.645-.612.78-.132 1.503-.138 2.145.388.513.421.763 1.02.793 1.668.036.727.066 1.454.098 2.181.158 3.5.32 7.005.477 10.505l.662 14.525.621 13.666.359 7.919c.007.164.017.328.023.49.036 1.168-.717 2.076-1.855 2.3-.438.085-.685.605-.576 1.012.125.454.576.662 1.013.576 1.82-.355 3.119-2.023 3.066-3.869-.003-.138-.013-.28-.02-.417l-.128-2.82c-.174-3.813-.345-7.626-.52-11.439l-.68-14.939-.603-13.248c-.098-2.165-.187-4.33-.296-6.491-.052-1.056-.457-2.08-1.273-2.783-.717-.619-1.632-.984-2.586-.968-.552.01-1.108.145-1.648.237-.648.109-1.296.22-1.944.326A958.919 958.919 0 0158.96 5.06c-9.985 1.506-19.986 2.905-29.975 4.382-5 .74-9.997 1.5-14.985 2.303-1.243.2-2.484.401-3.727.608-1.08.178-2.237.267-3.267.645a6.507 6.507 0 00-3.833 3.764c-.434 1.102-.418 2.224-.368 3.372l.154 3.47c.181 4.083.362 8.163.54 12.245l.661 14.98c.184 4.158.369 8.313.55 12.471.052 1.214.108 2.428.16 3.645.037.833.057 1.668.188 2.494.25 1.592 1.25 3.053 3.04 2.862.26-.026.517-.082.773-.128.619-.112 1.234-.224 1.852-.339 2.79-.51 5.58-1.017 8.37-1.526 4.227-.77 8.458-1.54 12.686-2.313 4.902-.892 9.8-1.787 14.702-2.678 4.806-.875 9.61-1.75 14.416-2.629 3.941-.717 7.886-1.438 11.827-2.155l6.939-1.263.917-.168c.438-.079.685-.612.576-1.013-.125-.46-.572-.655-1.013-.576l-.007.007z" fill="#04101B"/><path opacity=".4" d="M7.683 74.693c.204.395.448.764.747 1.093.504.552 1.125.944 1.737 1.362 5.159 3.536 10.265 7.145 15.37 10.754 4.57 3.23 9.133 6.468 13.69 9.715.53.379 1.056.763 1.592 1.135.2.138.296.148.553.099.361-.07.727-.135 1.089-.204l2.187-.415a2563.51 2563.51 0 009.732-1.865c7.211-1.395 14.42-2.813 21.627-4.237a10887.911 10887.911 0 0035.294-7.053l3.928-.794c.178-.036.355-.069.533-.108.089-.02.385-.125.576-.188-.017-.233-.033-.47-.053-.704l-.102-1.401a7.952 7.952 0 00-.273.052l-6.313 1.25c-3.912.774-7.824 1.55-11.735 2.323L83.15 88.42l-15.41 3.05c-4.557.9-9.113 1.802-13.67 2.704-3.17.628-6.342 1.256-9.514 1.882l-2.49.493c-.684.135-1.32.29-1.98-.132-2.162-1.385-4.222-2.957-6.32-4.431L21.455 83.36l-10.985-7.7c-.901-.632-1.806-1.264-2.708-1.899-.138-.098-.342-.306-.48-.18v.023c-.01.072.07.253.092.332.082.263.181.51.31.753v.003z" fill="#04101B"/><path d="M116.071 80.346c.072.98.141 1.957.214 2.938l.052.733c.004.06-.003.142.013.198.004.013 0 .046.004.059v.026c.01.138.059.017.148-.362-.02-.013-.615.207-.747.237-.178.04-.355.073-.533.109-1.309.263-2.619.53-3.928.793A10887.9 10887.9 0 0176 92.13a5234.118 5234.118 0 01-21.627 4.237c-3.244.629-6.488 1.25-9.732 1.866l-2.187.414c-.362.07-.727.138-1.09.204-.256.05-.351.04-.552-.099-.536-.371-1.063-.756-1.592-1.134-4.557-3.248-9.12-6.485-13.69-9.715-5.105-3.61-10.214-7.222-15.37-10.755-.612-.418-1.23-.81-1.737-1.362a5.06 5.06 0 01-1.056-1.846c-.026-.079-.102-.263-.092-.332.023-.171-.01-.013-.006-.016.138-.145.345.075.486.174.902.632 1.807 1.263 2.708 1.898l10.985 7.698c4.102 2.876 8.205 5.751 12.31 8.627 2.1 1.47 4.162 3.046 6.324 4.431.66.421 1.292.27 1.98.132l2.49-.494c3.172-.628 6.343-1.257 9.515-1.882l13.67-2.704 15.409-3.05 14.712-2.911c3.912-.773 7.823-1.55 11.735-2.323 2.106-.418 4.208-.832 6.313-1.25.152-.03.303-.053.451-.089 1.151-.29 1.757-1.602 1.099-2.635-.392-.612-1.244-1.026-1.833-1.431-.638-.44-1.279-.879-1.924-1.313a405.23 405.23 0 00-4.254-2.829c-6.346-4.168-12.771-8.218-19.232-12.205a560.142 560.142 0 00-7.255-4.409c-.91-.543-1.74.879-.829 1.421 5.82 3.461 11.564 7.05 17.282 10.68a677.576 677.576 0 019.649 6.224 360.05 360.05 0 014.257 2.839c.629.428 1.257.855 1.882 1.29.227.157.655.352.819.572.02.026.063.036.079.069.063.132-.118.138-.076.118-.312.142-.753.155-1.085.22-.974.195-1.948.386-2.918.58-3.405.674-6.81 1.349-10.215 2.02l-14.071 2.783-15.512 3.07-14.54 2.878c-3.728.737-7.456 1.474-11.183 2.214l-3.54.701c-.586.115-1.191.296-1.786.352-.191.02-.1.043-.244-.05-.204-.128-.395-.276-.592-.414-1.082-.756-2.165-1.516-3.247-2.273-3.836-2.688-7.675-5.38-11.511-8.067L13.526 75.81c-1.306-.915-2.612-1.83-3.918-2.747-.678-.474-1.47-1.234-2.353-1.184-1.03.059-1.753 1.033-1.592 2.03.161.996.678 1.898 1.27 2.654.924 1.178 2.29 1.938 3.507 2.777 2.507 1.73 5.004 3.474 7.494 5.224 5.356 3.76 10.696 7.544 16.028 11.334 1.731 1.23 3.465 2.46 5.192 3.694l.717.514c.619.44 1.188.48 1.928.342l4.5-.849a3381.367 3381.367 0 0020.69-4.01 6942.875 6942.875 0 0021.565-4.27c5.958-1.188 11.913-2.382 17.871-3.58l6.122-1.234c1.306-.263 2.652-.46 3.938-.809.698-.19 1.491-.56 1.514-1.388.01-.369-.056-.75-.083-1.119l-.207-2.839c-.076-1.05-1.72-1.06-1.645 0l.007-.003z" fill="#04101B"/><path d="M6.529 71.716c-.783-.444-1.435-1.457-1.83-2.323a3.812 3.812 0 01-.22-.625c-.01-.036-.062-.306-.046-.17-.003-.027-.003-.057-.007-.083v-.053l-.046-.904-.236-4.682-.385-7.553c-.158-3.093-.313-6.185-.47-9.278l-.498-9.81c-.158-3.093-.312-6.185-.47-9.278l-.385-7.553-.237-4.682a83.726 83.726 0 01-.046-.908c-.03-.733.411-1.2 1.122-1.322.727-.122 1.46-.22 2.191-.33 1.661-.25 3.326-.5 4.987-.746l7.11-1.066c2.885-.43 5.77-.865 8.655-1.296 3.178-.477 6.353-.954 9.531-1.428 3.257-.487 6.51-.977 9.768-1.464 3.122-.467 6.24-.937 9.363-1.405 2.773-.414 5.546-.832 8.32-1.246 2.21-.333 4.421-.665 6.632-.994l4.297-.645c.964-.145 1.93-.352 2.911-.17a5.98 5.98 0 011.454.476c.32.152.678.283.964.494.671.493.707 1.22.74 1.974.05 1.052 1.695 1.059 1.645 0-.046-1.04-.17-1.971-.875-2.8-.595-.704-1.582-1.112-2.43-1.434-1.179-.451-2.416-.494-3.65-.31l-2.7.405-5.462.82c-2.52.377-5.036.756-7.556 1.13-2.997.452-5.991.899-8.988 1.35-3.25.487-6.501.973-9.755 1.464-3.253.49-6.57.983-9.853 1.477l-9.29 1.391-8.06 1.208c-2.057.309-4.113.615-6.169.924-1.204.181-2.405.362-3.609.54-.21.033-.424.059-.638.095-1.382.24-2.352 1.507-2.306 2.892.03.921.092 1.842.141 2.763.105 2.106.214 4.212.32 6.317.147 2.892.292 5.78.44 8.672.168 3.28.332 6.557.5 9.837l.497 9.807.437 8.583c.106 2.056.208 4.112.313 6.169.043.852.066 1.707.131 2.56.056.752.343 1.46.701 2.121.52.954 1.254 1.964 2.218 2.51.92.523 1.753-.898.829-1.421z" fill="#04101B"/><path d="M5.584 19.311c.132 7.794.474 15.58.885 23.361.204 3.902.428 7.8.655 11.702l.335 5.797c.046.823.05 1.668.323 2.454a5.24 5.24 0 001.135 1.885c1.003 1.066 2.5 1.675 3.967 1.583.938-.06 1.885-.273 2.813-.421a3047.14 3047.14 0 0022.542-3.658 2207.42 2207.42 0 0019.114-3.254 1285.969 1285.969 0 0018.923-3.438c.747-.142 1.494-.286 2.24-.431.764-.148 1.445-.424 1.955-1.04.484-.582.71-1.306.678-2.06-.023-.549-.056-1.098-.082-1.647l-.408-8.136c-.195-3.889-.392-7.78-.586-11.67-.197-3.901-.391-7.803-.589-11.705l-.414-8.24c-.03-.576-.056-1.152-.086-1.728-.102-1.859-1.615-3.135-3.47-2.862-1.03.151-2.057.322-3.083.484L65.035 7.45 54.721 9.073c-3.947.622-7.892 1.24-11.84 1.862L30.95 12.81a12097.4 12097.4 0 00-10.745 1.691l-8.027 1.264-4.017.631c-1.464.23-2.55 1.402-2.566 2.912-.01 1.06 1.635 1.06 1.645 0 .006-.724.5-1.178 1.184-1.3.105-.02.207-.033.313-.05.52-.081 1.036-.164 1.556-.242 2.118-.333 4.24-.668 6.36-1l9.513-1.498c3.8-.598 7.6-1.194 11.4-1.793 3.957-.621 7.918-1.243 11.876-1.868 3.688-.58 7.376-1.162 11.064-1.74 2.977-.468 5.951-.938 8.929-1.405l5.467-.859c.343-.053.681-.112 1.023-.161.017 0 .03-.007.046-.007-.28.037.191 0 .234 0 .102.01.227.04.32.076.272.105.496.303.64.55.136.226.165.453.178.71l.267 5.323.52 10.327.598 11.926.514 10.231c.088 1.737.18 3.47.263 5.208.016.355-.007.688-.224.99-.362.504-.98.54-1.546.648-.75.145-1.5.286-2.25.431a1144.67 1144.67 0 01-9.054 1.678 1778.32 1778.32 0 01-19.068 3.34 2741.876 2741.876 0 01-17.904 2.98c-4.595.75-9.195 1.49-13.794 2.22-.832.132-1.668.28-2.503.395a3.53 3.53 0 01-3.152-1.151c-1.023-1.142-.882-2.744-.964-4.172-.112-1.911-.22-3.822-.332-5.734-.444-7.705-.875-15.41-1.172-23.118a526.552 526.552 0 01-.309-10.932c-.016-1.056-1.661-1.06-1.645 0h-.003zm51.388 66.403c.67.579 1.474 1.02 2.22 1.493.382.244.767.484 1.135.744l.178.128c-.214-.161.105.096.148.119.2.118.418.118.642.082.385-.063.766-.145 1.151-.214 2.267-.421 4.53-.845 6.797-1.267 3.237-.602 6.474-1.207 9.715-1.809l8.939-1.668c1.003-.187 2.003-.375 3.006-.56.484-.088.987-.15 1.464-.272a.462.462 0 01.066-.013c.671-.125.826-1.211.198-1.504-1.181-.55-2.363-1.095-3.54-1.645-.477-.22-1.106-.638-1.642-.55-.102.017-.2.037-.303.057l-5.72 1.056-9.722 1.796c-3.145.582-6.29 1.161-9.436 1.744-1.612.299-3.266.516-4.862.898a.643.643 0 01-.072.013c-.438.082-.685.609-.576 1.013.125.46.572.655 1.013.576.997-.184 1.994-.368 2.987-.553 2.392-.44 4.787-.885 7.179-1.326l8.692-1.605c2.516-.464 5.033-.931 7.55-1.395.826-.151 1.651-.306 2.477-.457.388-.073.796-.115 1.178-.217l.053-.01-.635-.082 4.55 2.112.197-1.504c-1.036.194-2.07.385-3.106.58l-7.418 1.38c-3.004.56-6.008 1.12-9.011 1.682-2.586.484-5.175.964-7.761 1.448l-2.573.48c-.404.076-.826.122-1.224.227l-.052.01c.266.069.533.141.8.21-.56-.48-1.218-.858-1.84-1.25a145.91 145.91 0 01-1.06-.674c-.144-.096-.289-.191-.43-.29-.053-.036-.105-.075-.158-.112-.141-.098.135.116-.03-.026-.335-.29-.832-.332-1.164 0-.296.296-.34.872 0 1.165v-.01z" fill="#04101B"/><path opacity=".4" d="M64.704 85.975c2.585-.484 5.175-.964 7.76-1.448 3.004-.559 6.008-1.118 9.011-1.68l7.419-1.382c.217-.04.438-.083.655-.122-.655-.306-1.313-.609-1.968-.915-.306.063-.618.102-.92.158-.827.151-1.652.306-2.478.457-2.517.464-5.034.931-7.55 1.395-2.899.537-5.794 1.07-8.692 1.606l-7.179 1.326-1.075.197c.042.026.085.053.125.082.483.306.99.606 1.454.951.286-.056.579-.095.862-.148l2.572-.48.004.003z" fill="#04101B"/><path d="M8.91 74.206l.06 3.287c.006.322.279.632.618.618.329-.013.622-.27.618-.618l-.059-3.287c-.006-.322-.28-.631-.618-.618-.34.013-.622.27-.619.618zm3.899 2.957V79.4c0 .323.283.632.618.619.336-.017.619-.27.619-.619v-2.237c0-.322-.283-.631-.619-.618-.335.013-.618.27-.618.618zm5.438 3.948c.03.767.06 1.533.086 2.3.013.322.276.631.618.618.323-.013.629-.273.619-.618-.03-.767-.06-1.533-.086-2.3-.013-.322-.276-.632-.618-.618-.323.013-.629.273-.619.618zm21.904 15.253v2.431c0 .431.379.843.823.823.444-.02.822-.362.822-.823v-2.43c0-.432-.378-.843-.822-.823-.444.02-.823.362-.823.822zm68.689-13.338c.073.856.142 1.714.214 2.57.027.322.263.631.619.618.312-.013.644-.273.618-.618-.072-.856-.141-1.715-.214-2.57-.026-.322-.263-.632-.618-.618-.313.013-.645.273-.619.618zm-6.501 1.369a9.743 9.743 0 00.349 2.616c.085.312.441.533.76.43a.626.626 0 00.431-.76 8.717 8.717 0 01-.142-.591c-.019-.099-.039-.198-.056-.3-.009-.052-.016-.108-.026-.16l-.006-.047c-.01-.069-.01-.063 0 .026.006-.032-.014-.105-.017-.138l-.016-.138c-.01-.109-.02-.217-.027-.326a9.51 9.51 0 01-.016-.608c0-.323-.286-.632-.619-.619a.63.63 0 00-.618.619l.003-.004zm-39.179.753l.218.089-.198-.082c.776.332 1.507.76 2.175 1.276l-.168-.128c.085.066.171.135.257.204.17.141.348.24.582.24a.84.84 0 00.582-.24c.276-.303.355-.872 0-1.165a11.13 11.13 0 00-3.01-1.78c-.184-.072-.47-.013-.635.083a.859.859 0 00-.378.49c-.05.21-.037.447.082.635.118.187.283.293.49.378h.003zm6.425-1.128c.04.014.08.03.116.047l-.198-.082c.191.082.372.19.54.315l-.168-.128c.171.135.326.29.457.46l-.128-.167c.128.168.234.345.316.54l-.082-.198c.046.108.082.217.111.332a.841.841 0 00.379.49c.177.102.437.148.635.083.197-.066.391-.188.49-.379a.882.882 0 00.082-.635 3.397 3.397 0 00-.776-1.398c-.365-.401-.833-.684-1.34-.872-.19-.069-.463-.016-.634.083a.843.843 0 00-.379.49c-.049.21-.036.447.083.635.118.187.28.3.49.378l.007.007zM9.187 62.456a78.508 78.508 0 017.925 2.405c.747.27 1.069-.922.329-1.191a78.232 78.232 0 00-7.925-2.405c-.77-.191-1.1 1-.33 1.19zm-.904-5.683a155.077 155.077 0 0019.206 4.606c1.852.32 3.707.605 5.57.859.332.046.657-.08.76-.431.082-.286-.103-.714-.432-.76a154.595 154.595 0 01-24.776-5.465c-.76-.233-1.085.958-.328 1.191zm50.577-46.65a314.496 314.496 0 0115.005 8.323c1.415.836 2.82 1.684 4.221 2.543.678.415 1.3-.651.622-1.066A311.198 311.198 0 0059.486 9.057c-.704-.365-1.33.697-.622 1.066h-.003zm9.249-1.366a39.298 39.298 0 019.422 4.307c.674.424 1.293-.645.622-1.066a40.496 40.496 0 00-9.715-4.428c-.76-.234-1.086.957-.33 1.19v-.003zm24.693 16.41c4.622 2.836 8.044 7.471 9.505 12.683.411 1.47.664 2.97.746 4.493.056 1.053 1.701 1.06 1.645 0-.316-5.862-2.941-11.514-7.168-15.587a22.757 22.757 0 00-3.899-3.013c-.904-.556-1.734.868-.829 1.42v.004zm1.072 9.716a11.201 11.201 0 013.369 6.155c.082.438.609.685 1.013.576.457-.125.658-.572.576-1.013a12.711 12.711 0 00-3.79-6.883c-.773-.723-1.938.438-1.165 1.165h-.003zm-51.749-6.436c4.596-.773 9.182-1.586 13.797-2.244l-.78-.595.336 5.678c.178 3 .352 6.004.53 9.005l.122 2.072c.151-.197.302-.398.454-.595-2.912.434-5.827.872-8.738 1.306l-13.811 2.063c-1.053.157-2.106.315-3.158.47.26.197.52.398.78.596-.149-2.5-.3-5.001-.448-7.501-.023-.362-.043-.727-.066-1.09-.046-.789-1.28-.792-1.233 0 .148 2.501.299 5.001.447 7.502.023.361.043.727.066 1.089.026.434.371.654.78.595 2.91-.434 5.826-.872 8.737-1.306l13.811-2.063a1010.6 1010.6 0 013.158-.47c.25-.037.468-.349.454-.596l-.335-5.678c-.178-3-.352-6.004-.53-9.004l-.122-2.073c-.026-.438-.371-.655-.78-.596-4.615.659-9.201 1.471-13.797 2.244-.78.132-.45 1.32.329 1.191h-.003z" fill="#04101B"/><path d="M15.431 23.819c6.79-.954 13.535-2.152 20.299-3.25 1.8-.293 3.602-.566 5.408-.823l-.78-.595c.113 1.891.224 3.786.336 5.678.178 3 .352 6.004.53 9.004l.122 2.073.454-.596c-2.912.434-5.827.872-8.738 1.306L19.25 38.68c-1.053.158-2.106.316-3.158.47.26.198.52.399.78.596-.113-1.865-.224-3.73-.336-5.596l-.53-8.88-.122-2.049c-.046-.79-1.28-.793-1.233 0l.335 5.596.53 8.88.122 2.049c.026.434.371.655.78.596l8.737-1.307 13.811-2.062c1.053-.158 2.105-.316 3.158-.47.25-.037.467-.35.454-.596l-.335-5.679c-.178-3-.352-6.004-.53-9.004l-.122-2.072c-.026-.438-.371-.655-.78-.596-6.158.875-12.274 2.03-18.42 2.994a499.58 499.58 0 01-7.286 1.079c-.33.046-.514.467-.431.76.098.355.427.477.76.43h-.004z" fill="#04101B"/><path d="M40.812 21.184c-6.744 1.086-13.462 2.336-20.246 3.168a90.53 90.53 0 01-5.165.507c-.79.05-.793 1.286 0 1.234 3.293-.214 6.573-.665 9.837-1.142 3.58-.526 7.145-1.118 10.715-1.717 1.727-.29 3.454-.582 5.185-.859.329-.052.513-.464.43-.76-.098-.348-.427-.483-.76-.43h.004z" fill="#04101B"/></svg>