<svg width="101" height="101" viewBox="0 0 101 101" fill="none" xmlns="http://www.w3.org/2000/svg"><path fill-rule="evenodd" clip-rule="evenodd" d="M36.192 15.43a1779.68 1779.68 0 00-4.408 16.152l-.015.005a.892.892 0 01-.029.09c-.432 1.435-1.476 2.802-2.963 3.245a5.742 5.742 0 01-.676.147 7.57 7.57 0 00-.352.065 57.45 57.45 0 00-1.85.413 92.79 92.79 0 00-3.697.978c-2.554.73-5.083 1.541-7.612 2.362-1.035.337-2.073.665-3.11.993a274.47 274.47 0 00-4.135 1.33c-.458.15-.917.337-1.31.62a.799.799 0 00-.126.11l-.057.065a.553.553 0 01-.037.04l-.057.098a7.242 7.242 0 01-.005.029v.014a.8.8 0 01.035.126l.03.042c.07.096.19.26.056.11l.009.01c.062.072.12.14.193.207.034.032.07.061.105.09.037.031.074.061.108.093.02.013.04.028.059.044l.169.113.168.113c1.223.825 2.44 1.65 3.659 2.476l.004.003a1459.819 1459.819 0 0114.69 10.121c.49.343.64.509.827 1.028.221.624.307 1.305.378 1.96.115 1.078.11 2.164.107 3.248l-.002.59-.015 4.449-.012 2.994c-.01 1.993-.018 3.984-.018 5.978 0 1.507 0 3.074.01 4.524.003.427.002.855 0 1.282-.003 1.028-.006 2.057.05 3.081.01.242.03.434.076.655.02.09.045.182.07.272l.042.124c.019.039.039.076.061.113h-.002s.004.011.017.023l.002.004.01-.003a.237.237 0 00-.011-.012l.01.012c.033-.011.071-.022.103-.03l.005-.004c.047-.033.099-.06.15-.087.042-.022.084-.044.122-.07a.595.595 0 00.058-.04l.046-.032c3.504-3.181 7.285-6.08 11.08-8.9 2.267-1.682 4.57-3.33 6.882-4.952.534-.378 1.048-.736 1.658-.982a6.34 6.34 0 011.587-.378c.896-.111 1.798-.05 2.68.1.592.102 1.16.282 1.728.462l.327.103c1.386.433 2.761.881 4.136 1.345 2.771.937 5.527 1.924 8.278 2.912l1.365.49c.91.327 1.82.653 2.73.976.706.252 1.411.499 2.121.745.144.051.288.105.432.158.442.164.886.328 1.342.427l.08.015.077.014.024.001c.076.005.156.005.232.005a.3.3 0 01.03.001.98.98 0 01.117-.035l.014-.016c.02-.03.043-.067.04-.076a.88.88 0 01.04-.181v-.01l.002-.12c.001-.08.002-.156-.001-.233l-.01-.1c-.004-.035-.008-.069-.01-.101.01.128.01.117.005.073a2.527 2.527 0 00-.016-.119 7.706 7.706 0 00-.07-.332 8.576 8.576 0 00-.247-.796 67.251 67.251 0 01-.785-2.486c-.157-.521-.315-1.042-.48-1.56a630.207 630.207 0 00-3.906-11.795 403.648 403.648 0 01-1.686-5.011c-.599-1.834-.498-3.93.534-5.597.294-.47.678-.886 1.058-1.297.142-.154.283-.307.419-.462a235.446 235.446 0 002.745-3.199 288.322 288.322 0 005.35-6.544 326.581 326.581 0 003.844-4.937c.097-.127.197-.254.297-.38.278-.353.56-.711.782-1.096.041-.068.052-.08.057-.095.006-.013.006-.028.023-.091a.872.872 0 00.02-.111c.003-.021.005-.038.007-.042v-.01a2.852 2.852 0 01-.005-.073 2.783 2.783 0 01-.014-.045c-.002.016-.05-.072-.065-.11a5.752 5.752 0 01-.079-.088l-.055-.05-.036-.033a4.19 4.19 0 01-.12-.083 4.47 4.47 0 00-.327-.174l-.056-.028c-.04-.02-.027-.015-.003-.005a.418.418 0 00-.043-.015l-.166-.06a4.31 4.31 0 00-.471-.137l-.07-.004a51.414 51.414 0 00-.507-.033 47.002 47.002 0 01-.413-.028l-1.763-.106c-1.26-.07-2.52-.13-3.779-.181a213.89 213.89 0 00-7.808-.177c-2.459-.01-4.917.03-7.376.157h-.018c-1.097.06-2.144.118-3.18-.318a4.458 4.458 0 01-1.754-1.325 4.631 4.631 0 01-.438-.64 2.422 2.422 0 01-.081-.16.349.349 0 01-.025-.059c-.008-.02-.015-.04-.025-.058l-.01-.018c-.006.005-.03-.011-.086-.072-.251-.265-.468-.58-.68-.89-.105-.15-.207-.299-.313-.44-.342-.464-.685-.932-1.027-1.4a408.436 408.436 0 01-4.368-6.132 755.68 755.68 0 01-5.255-7.602l-.962-1.406c-.302-.438-.605-.871-.992-1.239a1.59 1.59 0 00-.403-.307c-.016-.01-.062-.03-.102-.049-.04-.018-.076-.034-.069-.034a2.598 2.598 0 00-.031-.008c-.029-.008-.058-.015-.086-.025h-.09a.117.117 0 00-.018-.002l-.002.002a.71.71 0 01-.116.036.797.797 0 00-.066.034 1.028 1.028 0 00-.102.077l.057-.051-.035.03a1.022 1.022 0 00-.096.09l-.121.136a.473.473 0 01-.016.017l-.01.014a5.542 5.542 0 00-.403.715 1.333 1.333 0 01-.045.11l-.045.127-.045.126c-.156.459-.281.925-.407 1.393-.045.169-.09.338-.137.506a4007.569 4007.569 0 00-1.104 3.95zm-9.564 70.614a.07.07 0 00-.016-.012l.015.023.002.004c-.007-.013-.006-.019-.001-.015z" fill="#fff"/><path d="M37.954 9.27l.007-.018-.007.018zm42.587 21.39c.01 0 .022.003.034.006l-.034-.006z" fill="#fff"/><path d="M31.784 31.582a1779.68 1779.68 0 014.408-16.151l1.104-3.95c.176-.635.332-1.274.544-1.9l.09-.251c.02-.045.04-.096.056-.141-.06.156-.025.055.02-.035.11-.227.232-.439.373-.65.096-.146-.066.065.025-.03l.12-.137c.041-.045.087-.08.132-.12-.121.11-.02.015.045-.026.03-.02.192-.09.086-.05-.131.05.086-.01.096-.02.06-.056.02 0-.056 0 .025 0 .05-.005.076 0h.105c.086 0-.176-.05-.015 0 .056.02.116.03.172.05-.161-.055.075.04.116.066.191.11.221.136.403.307.388.368.69.801.992 1.24.64.936 1.285 1.873 1.924 2.81a755.68 755.68 0 004.293 6.197 408.436 408.436 0 004.368 6.131c.342.469.685.937 1.027 1.4.323.434.62.938.993 1.33.212.227-.045-.17.096.091.02.036.03.081.05.116.025.056.05.106.08.161.127.227.278.439.439.64a4.458 4.458 0 001.753 1.325c1.043.439 2.096.378 3.2.318 2.458-.126 4.916-.166 7.375-.157 2.604.01 5.209.071 7.808.177 1.26.05 2.52.11 3.779.181l1.763.106c.277.02.55.035.826.055.056 0 .293.026.091-.005a4.23 4.23 0 01.544.151l.166.061c.036.01.066.025.101.04 0 0-.136-.06-.055-.02.13.066.257.126.383.202.02.015.191.136.115.075-.075-.06.076.07.096.09.02.021.151.177.09.092-.07-.101.117.262.031.03.01.03.066.232.045.12-.02-.1 0 .107 0 .142 0-.151-.01.03-.03.095-.035.131 0 .056-.08.187-.303.524-.716.997-1.079 1.476a326.581 326.581 0 01-3.844 4.937 288.322 288.322 0 01-5.35 6.544 235.446 235.446 0 01-2.745 3.2c-.5.569-1.073 1.113-1.477 1.758-1.032 1.667-1.133 3.763-.534 5.597.917 2.806 1.895 5.592 2.832 8.393a630.207 630.207 0 012.76 8.413c.429 1.345.807 2.716 1.265 4.046.09.262.181.524.247.796.025.11.05.221.07.332.01.056.03.277.01.046.006.065.016.136.02.201.006.116 0 .232 0 .353v.01c-.014.055-.035.12-.04.181-.025.151-.02-.096 0 0 .005.02-.12.187-.03.07.076-.1-.025.03-.055.051.146-.096.045-.025-.035 0 .146-.05.055-.03-.03 0-.177.05.09.005-.051.005-.076 0-.156 0-.232-.005-.12-.005.111.02-.02 0l-.161-.03c-.605-.131-1.19-.378-1.774-.585a229.99 229.99 0 01-2.12-.745c-1.366-.484-2.731-.977-4.096-1.466A473.397 473.397 0 0057.2 72.59c-1.375-.464-2.75-.912-4.136-1.345-.68-.212-1.35-.444-2.055-.564-.882-.152-1.784-.212-2.68-.101a6.34 6.34 0 00-1.587.378c-.61.246-1.124.604-1.658.982a317.106 317.106 0 00-6.882 4.952c-3.798 2.822-7.582 5.723-11.088 8.907-.116.106.126-.08.02-.015-.04.025-.075.056-.116.08-.085.056-.186.097-.272.157-.085.06.156-.035.01 0a1.4 1.4 0 00-.136.04c-.15.056.04 0 .03 0-.201.01.071.03 0 .01-.115-.03-.03-.015.036.025-.106-.06-.09-.11-.015 0-.05-.075-.07-.075-.005.016a1.35 1.35 0 01-.111-.182l-.046-.136a5.412 5.412 0 01-.07-.272 3.882 3.882 0 01-.076-.655c-.08-1.45-.04-2.912-.05-4.363-.01-1.45-.01-3.017-.01-4.524 0-2.992.02-5.98.03-8.972l.015-4.449c0-1.28.03-2.564-.105-3.839-.071-.654-.157-1.334-.378-1.96-.187-.518-.338-.684-.827-1.027a1453.683 1453.683 0 00-14.69-10.121c-1.22-.826-2.438-1.652-3.663-2.479-.11-.075-.226-.15-.337-.227-.025-.02-.05-.04-.08-.055-.127-.08.12.116.04.03-.071-.07-.157-.13-.232-.201-.076-.07-.136-.141-.202-.217.156.177-.035-.08-.085-.15-.091-.127.015.115 0 .004a.79.79 0 00-.04-.146c0-.01.01.176.004.015 0-.191-.02.106 0-.015.025-.146 0-.015 0-.02a2.7 2.7 0 01.096-.161c-.09.13.015-.005.06-.05a.799.799 0 01.126-.112c.393-.282.852-.468 1.31-.62 2.403-.8 4.832-1.536 7.245-2.322 2.529-.82 5.058-1.632 7.612-2.362a92.79 92.79 0 013.698-.978 57.45 57.45 0 011.849-.413c.337-.07.695-.11 1.027-.212 1.522-.453 2.58-1.874 2.993-3.345.267-.952-1.214-1.36-1.481-.408-.207.73-.55 1.315-1.103 1.799-.152.13-.026.035-.182.14a4.69 4.69 0 01-.312.192c-.08.046-.161.08-.242.121-.09.046.186-.06.055-.025-.04.01-.075.03-.11.04-.615.197-1.285.267-1.915.408a77.576 77.576 0 00-3.017.746c-4.056 1.083-8.036 2.418-12.02 3.718-.943.307-1.88.61-2.822.907-.927.292-1.884.534-2.766.957-1.113.534-2.045 1.607-1.42 2.872.276.559.775.962 1.284 1.3 1.904 1.264 3.789 2.564 5.678 3.848a1399.59 1399.59 0 0113.174 9.094l-.277-.277c.02.025.03.06.045.08.046.056.07.242-.015-.045.02.06.045.12.066.181.06.182.11.373.15.56.056.251.116.604.132.755.267 2.187.13 4.439.12 6.635-.015 4.907-.055 9.819-.03 14.726.005 1.23.015 2.453.03 3.683.01.906-.045 1.894.273 2.765.201.555.569 1.058 1.168 1.21.479.12.973-.026 1.39-.263a4.13 4.13 0 00.822-.63c.428-.412.892-.79 1.345-1.178a157.948 157.948 0 015.441-4.423c3.668-2.862 7.431-5.648 11.285-8.257.665-.449 1.426-.676 2.222-.731a8.651 8.651 0 011.562.045c.256.03-.142-.025.095.01.09.015.177.026.267.046.464.08.897.216 1.345.352a159.8 159.8 0 013.431 1.094c4.56 1.501 9.063 3.174 13.587 4.776 1.134.403 2.262.8 3.4 1.188.646.222 1.371.409 2.041.187 1.154-.383 1.29-1.627 1.124-2.665-.136-.857-.479-1.708-.736-2.53-.72-2.311-1.46-4.619-2.216-6.921a899.02 899.02 0 00-2.278-6.822c-.387-1.148-.775-2.297-1.163-3.44-.363-1.073-.827-2.162-1.038-3.275a5.09 5.09 0 01.106-2.323c.045-.156.095-.312.15-.463 0-.01.102-.237.031-.086a5.525 5.525 0 01.383-.715c.03-.05.07-.096.1-.146.071-.121-.105.181-.075.096.076-.207.403-.459.554-.625.187-.212.373-.423.554-.635.751-.856 1.497-1.723 2.232-2.594 3.018-3.557 5.94-7.19 8.786-10.882.686-.892 1.386-1.779 2.05-2.686.424-.584.696-1.32.474-2.035-.312-1.022-1.425-1.562-2.383-1.803-.574-.147-1.209-.126-1.798-.162a293.78 293.78 0 00-2.978-.166 220.732 220.732 0 00-6.327-.227 179.664 179.664 0 00-6.383-.035c-1.018.015-2.03.035-3.048.07-.957.036-1.914.122-2.867.137-.725.01-1.35-.146-1.92-.514-.06-.04-.125-.08-.186-.126.121.09-.055-.05-.065-.056-.08-.075-.161-.146-.242-.226a3.928 3.928 0 01-.237-.267c-.12-.146.091.136-.01-.015a3.564 3.564 0 01-.105-.157c-.066-.105-.121-.211-.182-.317-.01-.015-.025-.076-.04-.086l.075.172a6.056 6.056 0 01-.075-.187c-.07-.126-.182-.241-.267-.352a196.447 196.447 0 01-1.673-2.257 458.621 458.621 0 01-7.159-10.137c-1.113-1.612-2.216-3.224-3.325-4.836-.79-1.154-1.849-2.987-3.496-2.887-2.232.141-2.705 3.39-3.164 5.023a1545.988 1545.988 0 00-3.637 13.174c-.58 2.126-1.154 4.257-1.723 6.388-.257.957 1.224 1.366 1.481.408l.015-.005z" fill="#000"/><g opacity=".1" fill="#000"><path d="M24.364 57.099s0-.005-.005-.01c0 .015.01.035.015.045 0 0 .006 0 .01.005l-.015-.04h-.005z"/><path d="M24.389 57.144s-.005 0-.005-.005c.005.02.015.035.02.056 0-.01-.005-.03-.015-.05z"/><path d="M25.09 86.344c-.318-.871-.263-1.859-.273-2.765-.015-1.23-.025-2.454-.03-3.683-.02-4.907.015-9.82.03-14.726.01-2.197.146-4.449-.12-6.635-.02-.151-.076-.499-.131-.756a5.063 5.063 0 00-.162-.59c0 .016-.005 0-.03-.06-4.302-3.007-8.62-5.99-12.957-8.942-1.89-1.29-3.774-2.584-5.678-3.849-.433-.287-.862-.63-1.149-1.073a7.6 7.6 0 00-1.28 2.378c1.124.791 2.252 1.582 3.376 2.378l6.217 4.373c1.944 1.365 3.889 2.735 5.829 4.1.614.434 1.224.862 1.838 1.295.398.282.953.56.993 1.094.065.932.03 1.884.045 2.816.035 2.277.076 4.554.121 6.826.05 2.771.106 5.547.171 8.318.056 2.428.116 4.861.207 7.29.03.82.06 1.642.106 2.458a21.54 21.54 0 00.08 1.078c0 .015.01.046.005.06v-.025c-.03-.15.036-.186 0 0 0 .016.016.056.026.091.01.025.025.05.035.07l.025.026c.01 0 .015.005.02.01.035.01.066.015.096.03.01 0 .01.005.02.01h.186c.056 0 .111-.005.167-.01.01 0 .015 0 .03-.005.287-.065.57-.14.846-.242l.227-.09h.01l.066-.03c.14-.066.277-.126.418-.197.302-.146.6-.307.892-.479a2.631 2.631 0 01-.278-.544h.005z"/></g><path d="M25.09 86.344c-.317-.871-.262-1.859-.272-2.765a452.16 452.16 0 01-.03-3.683c-.02-4.907.015-9.82.03-14.726.01-2.197.146-4.449-.12-6.635-.02-.151-.076-.499-.131-.756a5.085 5.085 0 00-.162-.59c0 .016-.005 0-.03-.06a1257.01 1257.01 0 00-12.957-8.942c-1.89-1.29-3.774-2.584-5.678-3.849-.433-.287-.862-.63-1.149-1.073a7.6 7.6 0 00-1.28 2.378c1.124.791 2.252 1.582 3.376 2.378l6.217 4.373c1.944 1.365 3.889 2.735 5.829 4.1.614.434 1.224.862 1.838 1.295.398.282.953.56.993 1.094.065.932.03 1.884.045 2.816.035 2.277.076 4.554.121 6.826.05 2.771.106 5.547.171 8.318.056 2.428.116 4.861.207 7.29.03.82.06 1.642.106 2.458a21.54 21.54 0 00.08 1.078c0 .015.01.046.005.06v-.025c-.03-.15.036-.186 0 0 0 .016.015.056.026.091.01.025.025.05.035.07l.025.026c.01 0 .015.005.02.01.035.01.066.015.096.03.01 0 .01.005.02.01h.187c.055 0 .11-.005.166-.01.01 0 .015 0 .03-.005a7.06 7.06 0 00.846-.242l.227-.09h.01l.066-.03c.14-.066.277-.126.418-.197.302-.146.6-.307.891-.479a2.636 2.636 0 01-.277-.544h.005z" fill="#FFEC00"/><path d="M21.936 84.586a10.88 10.88 0 011.471-1.047 12.745 12.745 0 011.24-.65l.106-.046c.01 0 .105-.045.065-.03-.04.015.056-.025.066-.025.045-.02.09-.035.136-.056.277-.11.503-.388.403-.71-.086-.272-.408-.524-.71-.403a13.2 13.2 0 00-3.593 2.146c-.231.197-.216.615 0 .816.247.227.57.207.816 0v.005zm0-5.436c.206-.211.428-.413.66-.604.035-.026.07-.056.1-.081.07-.055-.065.045.01-.005.056-.04.111-.086.172-.126a7.37 7.37 0 011.179-.69c.065-.03.125-.06.191-.086.035-.015.11-.045.03-.015.03-.015.066-.025.096-.04.146-.056.297-.111.443-.161.287-.096.499-.403.403-.71-.09-.288-.403-.505-.71-.404a8.403 8.403 0 00-3.39 2.101c-.212.217-.232.605 0 .816.231.212.589.232.816 0v.005zm.035-6.363c.544-.373 1.088-.75 1.678-1.053a5.48 5.48 0 01.423-.201c.066-.03.076-.035.035-.015l.116-.046c.076-.03.156-.055.232-.08.156-.05.312-.096.473-.131l.242-.046c-.05.005-.04 0 .03 0 .04 0 .081-.01.126-.01.298-.025.59-.246.575-.574-.015-.292-.252-.605-.575-.574-1.486.12-2.735.917-3.93 1.743-.246.171-.382.514-.206.786.156.247.524.388.786.206l-.005-.005zm30.535-.589c-4.232-1.829-7.748 1.708-7.748 1.708l2.373.71c.574-.69 1.219-1.335 1.854-1.965a.584.584 0 01.816 0 .589.589 0 010 .816c-.51.504-1.003.998-1.466 1.512 1.108.337 2.413.73 3.808 1.158.464-.7.943-1.39 1.446-2.065.192-.257.484-.368.786-.207.252.136.388.544.207.786-.449.6-.882 1.214-1.295 1.834 1.073.333 2.176.675 3.28 1.023.347-.514.73-1.008 1.143-1.471.212-.242.595-.202.816 0 .237.216.202.59 0 .816a10.076 10.076 0 00-.529.635c-.005.005-.02.03-.03.04l-.181.242-.07.1c4.221 1.34 8.14 2.65 9.375 3.27 3.516 1.768 7.396-1.37 7.396-1.37s-17.744-5.743-21.976-7.572h-.005zM70.411 7.38a65.034 65.034 0 014.68-6.07c.272-.313.308-.776 0-1.089-.277-.277-.81-.312-1.088 0a68.458 68.458 0 00-4.917 6.383c-.232.343-.066.852.277 1.053.378.222.816.07 1.053-.277h-.005zm25.34 56.627a7.92 7.92 0 011.557.03c-.156-.02.136.02.161.025a7.772 7.772 0 011.501.418l.136.056c-.06-.026-.06-.026-.015 0 .166.08.338.156.499.242.353.186.851.1 1.053-.278.186-.352.106-.851-.277-1.053-1.416-.745-3.023-1.103-4.62-.977-.398.03-.786.333-.766.766.015.388.338.8.766.766l.005.005zM10.646 94.631c-1.204 1.527-2.408 3.048-3.612 4.575-.247.312-.328.78 0 1.088.277.252.821.338 1.088 0l3.612-4.574c.247-.313.328-.781 0-1.089-.277-.252-.821-.337-1.088 0zm-5.27-78.984a8.13 8.13 0 00-4.413-3.189c-.388-.11-.852.136-.942.534-.09.398.12.826.534.942.186.056.378.116.559.187.05.02.096.035.146.055.136.05-.07-.03.015.005a7.39 7.39 0 011.29.73c.035.026.065.051.1.071.061.046.101.076.016.01l.242.197c.15.126.292.262.433.398.14.136.272.282.398.433.035.04.065.08.1.12.02.026.111.147.016.016.06.086.12.166.181.252.227.327.685.514 1.053.277.327-.212.519-.695.277-1.053l-.005.015z" fill="#000"/><path d="M4.318 41.285a9.203 9.203 0 00-2.65 4.464c-.09.352.066.665.353.866l6.222 4.378c3.3 2.323 6.6 4.645 9.904 6.968.751.529 1.502 1.058 2.252 1.582l-.378-.665c.02 1.325.04 2.65.066 3.974.05 2.993.106 5.986.166 8.973.066 3.23.136 6.464.232 9.693.06 1.995.065 4.01.257 6 .055.56.166 1.103.6 1.501.579.53 1.405.514 2.125.353 1.28-.287 2.5-1.007 3.587-1.728.076-.05.157-.1.232-.156.338-.237.499-.67.277-1.053-.196-.338-.71-.514-1.053-.277a15.856 15.856 0 01-2.453 1.395.766.766 0 01-.096.04c.01-.004.1-.04.02-.01l-.227.091a6.128 6.128 0 01-.846.242c-.151.035.005 0-.03.005-.055 0-.11.01-.166.01h-.162c-.17.005.111.05-.045-.005-.045-.015-.09-.025-.136-.04-.045-.015.151.07.015 0-.126-.066.03.035.01.01-.1-.136.04.13-.03-.025-.01-.025-.08-.172-.04-.07.04.1-.015-.066-.02-.097-.03-.16.04-.196 0 .02 0-.014-.005-.04-.005-.06-.005-.09-.02-.186-.026-.277-.025-.267-.04-.534-.055-.8a132.92 132.92 0 01-.106-2.46 699.861 699.861 0 01-.206-7.29c-.066-2.77-.121-5.546-.172-8.317l-.12-6.826c-.016-.932.02-1.884-.046-2.816-.035-.534-.594-.812-.992-1.094l-1.84-1.294c-1.944-1.366-3.889-2.736-5.828-4.101L6.69 48.016 2.988 45.41c-.06-.04-.12-.085-.181-.126l.353.867a7.695 7.695 0 012.257-3.789c.725-.675-.363-1.758-1.089-1.088l-.01.01zM33.886 8.831a5.185 5.185 0 00-2.851 3.668l-1.507 6.096c.141-.07.288-.136.428-.207a.599.599 0 01.293-.08c.05.005.1.015.15.02a.569.569 0 01.343.267c.081.12.096.307.06.443-.034.126-.14.287-.266.343l-1.159.554a.566.566 0 01-.196.065l-1.084 4.383a8.498 8.498 0 011.764-.61c.317-.07.61.096.71.404.09.287-.106.645-.403.71a8.213 8.213 0 00-1.189.362c-.015.006-.14.061-.136.056-.045.02-.09.04-.13.06a7.268 7.268 0 00-.988.55l-1.174 4.74a32.829 32.829 0 012.877-1.063c.297-.095.63.111.71.403a.59.59 0 01-.403.71 31.486 31.486 0 00-3.532 1.356l-.544 2.197c.867.866 4.716-1.431 4.826-1.588.111-.156 7.502-25.794 7.502-25.794L33.89 8.831h-.005z" fill="#000"/></svg>