<svg width="129" height="133" viewBox="0 0 129 133" fill="none" xmlns="http://www.w3.org/2000/svg"><g id="Illu/Magnifying-glass_Talk"><g id="Geoloc"><g id="Group"><path id="Vector" d="M85.69 69.926a194.523 194.523 0 005.85 10.638c1.49 2.513 2.986 5.052 4.63 7.472 1.149 1.691 3.109 4.174 5.444 3.24.913-.367 1.578-1.094 2.152-1.868.854-1.156 1.498-2.465 2.116-3.757 1.185-2.486 2.27-5.025 3.429-7.522 1.354-2.915 2.687-5.838 3.946-8.794 1.516-3.559 2.941-7.16 4.209-10.818 1.365-3.94 2.631-7.963 3.476-12.051 1.283-6.213 1.41-13.095-1.522-18.885-1.171-2.311-2.853-4.33-4.945-5.858-2.25-1.64-4.875-2.498-7.594-2.983a36.272 36.272 0 00-10.55-.307c-3.31.387-6.59 1.19-9.603 2.64a18.087 18.087 0 00-3.724 2.364c-1.138.943-2.054 2.066-2.855 3.29-1.83 2.793-2.977 6.05-3.595 9.32-.617 3.269-.762 6.422-.212 9.591.301 1.741.925 3.411 1.492 5.078a187.409 187.409 0 002.037 5.714c1.646 4.39 3.423 8.76 5.542 12.95.092.183.186.366.284.549.449.84 1.726.095 1.277-.745-1.434-2.68-2.637-5.527-3.778-8.306a177.748 177.748 0 01-3.801-10.159c-.573-1.682-1.22-3.372-1.56-5.12-.264-1.35-.355-2.751-.346-4.158a28.437 28.437 0 011.708-9.456c.99-2.728 2.462-5.45 4.69-7.363 2.23-1.912 4.946-3.02 7.692-3.78 3.222-.89 6.58-1.25 9.917-1.168 3.071.077 6.298.458 9.172 1.608 2.122.849 4.055 2.273 5.571 4.094 1.517 1.82 2.666 4.262 3.302 6.689.771 2.944.916 6.015.689 9.048-.284 3.8-1.239 7.502-2.306 11.146-1.123 3.834-2.444 7.608-3.899 11.33-2.252 5.764-4.895 11.35-7.463 16.978-1.191 2.607-2.205 5.362-3.822 7.744-.29.429-.437.636-.842 1.029a3.215 3.215 0 01-.193.177l-.115.098c.157-.13.033-.024-.003 0-.15.1-.307.177-.461.272-.127.077.166-.048.024-.01-.027.007-.05.022-.077.028-.077.023-.154.047-.234.067-.065.015-.289.027-.038.015-.095.006-.186.015-.281.018-.044 0-.088 0-.133-.006.169.015-.044-.012-.071-.018-.068-.02-.136-.038-.201-.062-.213-.074.116.062-.091-.038a3.88 3.88 0 01-.707-.455c-.854-.713-1.44-1.478-2.01-2.36-.703-1.078-1.38-2.175-2.06-3.268a197.172 197.172 0 01-5.43-9.255 206.744 206.744 0 01-2.84-5.365c-.435-.848-1.709-.1-1.277.745l-.01.003z" fill="#000"/><path id="Vector_2" d="M127.131 33.673a21.3 21.3 0 00-.892-3.278 24.596 24.596 0 00-.19-.5l-.106-.26c-.012-.03-.024-.062-.038-.092 0-.006-.006-.008-.009-.02a18.842 18.842 0 00-2.117-3.698c-.041-.056-.079-.11-.121-.163-.015-.017-.062-.082-.086-.112l-.115-.148-.124-.154a17.727 17.727 0 00-2.385-2.409c-.086-.07-.175-.144-.26-.212a13.618 13.618 0 00-.627-.473 15.208 15.208 0 00-1.72-1.07 9.267 9.267 0 00-.662-.322c-.042-.018-.086-.036-.128-.057a15.156 15.156 0 00-1.214-.44c-1.387-.446-2.82-.745-4.26-.96a41.9 41.9 0 00-4.38-.409c2.424.506 4.753 1.348 6.777 2.823 2.093 1.528 3.775 3.547 4.946 5.859 2.932 5.79 2.805 12.671 1.522 18.884-.843 4.088-2.111 8.111-3.476 12.051-1.268 3.657-2.693 7.257-4.209 10.819-1.26 2.955-2.596 5.879-3.946 8.793-1.159 2.498-2.244 5.037-3.429 7.523a35.305 35.305 0 01-1.218 2.376 23.297 23.297 0 002.518-1.46c.524-.346 1.008-.763 1.537-1.094.027-.014.101-.056.116-.05.032-.035.056-.088.082-.13.299-.461.589-.928.878-1.395a140.546 140.546 0 003.793-6.586 171.654 171.654 0 005.353-10.756 156.951 156.951 0 005.58-13.969c1.534-4.46 2.873-9 2.992-13.75.044-1.756-.068-3.5-.382-5.158v-.003z" fill="#FFEC00"/><path id="Vector_3" d="M102.557 90.56a27.135 27.135 0 006.905-3.81c.269-.207.526-.393.709-.674.107-.162.21-.328.314-.49a121.468 121.468 0 003.183-5.368 169.287 169.287 0 005.19-10.002 166.814 166.814 0 005.8-13.639c1.726-4.631 3.52-9.715 4.123-14.84.426-3.61.269-7.343-.813-10.83a19.803 19.803 0 00-3.836-6.997 18.2 18.2 0 00-4.251-3.648c-1.593-.981-3.302-1.54-5.081-1.945-4.023-.919-8.223-1.064-12.332-.863a72.499 72.499 0 00-4.079.32c-.396.04-.739.31-.739.738 0 .429.34.78.74.74 4.519-.48 9.242-.615 13.694.056 1.439.215 2.873.514 4.259.96a18.578 18.578 0 011.141.411l.029.012c.06.024.116.05.175.077.225.1.446.207.662.322.597.316 1.17.677 1.72 1.07.163.118.325.236.485.357-.189-.144.089.072.142.113.089.07.174.142.26.213.37.31.727.632 1.07.97a18.373 18.373 0 011.315 1.439l.125.153a9.595 9.595 0 01.201.26l.121.163c.088.118.174.24.26.36a18.77 18.77 0 011.856 3.338c.047.11-.038-.095.006.015.015.032.027.065.041.097l.107.26c.065.166.127.334.189.5.124.346.242.694.349 1.046.221.733.402 1.481.544 2.232.313 1.658.425 3.402.381 5.158-.118 4.75-1.457 9.29-2.991 13.75a157.238 157.238 0 01-5.581 13.97 171.054 171.054 0 01-5.353 10.755 141.318 141.318 0 01-3.792 6.586c-.287.467-.58.934-.878 1.395-.027.042-.05.095-.086.13-.009.01-.012.021-.018.03 0 0 0 .006-.006.006.089-.086-.053-.01-.088.012-.529.33-1.014.75-1.537 1.093a25.39 25.39 0 01-5.019 2.572c-.373.142-.63.5-.517.91.097.358.535.66.91.517h-.009z" fill="#000"/><path id="Vector_4" d="M116.583 24.569a16.272 16.272 0 005.161-1.43c.361-.17.452-.69.266-1.012-.216-.372-.647-.434-1.011-.266a14.817 14.817 0 01-4.413 1.23c-.384.041-.756.31-.739.739.018.363.328.783.739.739h-.003z" fill="#000"/><path id="Vector_5" d="M119.537 28.872a105.78 105.78 0 005.264-.895c.393-.077.615-.544.518-.91-.113-.408-.518-.595-.911-.518a105.32 105.32 0 01-5.264.896c-.396.056-.612.558-.517.91.115.426.511.574.91.517z" fill="#000"/><path id="Vector_6" d="M110.431 76.851l5.504-1.835c.379-.127.627-.509.517-.91-.1-.37-.529-.642-.91-.518l-5.504 1.836c-.378.127-.626.508-.517.91.101.37.529.641.91.517z" fill="#000"/><path id="Vector_7" d="M107.547 82.707a35.034 35.034 0 015.028-1.478c.39-.083.618-.54.517-.91-.112-.405-.517-.6-.91-.518a35.06 35.06 0 00-5.028 1.478c-.372.142-.629.5-.517.91.097.358.535.66.91.518z" fill="#000"/><path id="Vector_8" d="M121.574 12.698l4.916-5.808c.257-.304.298-.748 0-1.046-.263-.263-.786-.308-1.046 0l-4.916 5.808c-.257.304-.299.748 0 1.046.263.263.786.308 1.046 0z" fill="#000"/><path id="Vector_9" d="M110.021 7.795l.351-6.462c.021-.399-.354-.739-.738-.739-.417 0-.719.34-.739.74-.119 2.154-.234 4.306-.352 6.46-.021.4.355.74.739.74.417 0 .718-.34.739-.74z" fill="#000"/><path id="Vector_10" d="M98.7 8.333a75.014 75.014 0 01-2.882-5.537c-.168-.36-.689-.452-1.01-.266-.37.216-.435.648-.267 1.011a74.424 74.424 0 002.882 5.537c.473.824 1.753.08 1.277-.745z" fill="#000"/><path id="Vector_11" d="M91.694 45.375c-.58-.674-1.138-1.363-1.596-2.126-.482-.8-.784-1.652-1.014-2.556-.23-.905-.367-1.892-.284-2.856.012-.127.027-.25.033-.378.006-.106.009-.216.017-.322.006-.074.012-.148.021-.222.006-.047.012-.091.015-.139.024-.207-.015.098-.003.018.083-.508.177-1.01.322-1.508.086-.298.186-.594.296-.883l.088-.219c.06-.15-.053.121-.008.02.017-.035.032-.073.05-.112.077-.165.153-.33.236-.493a8.99 8.99 0 01.562-.949c.05-.077.103-.15.156-.225.033-.044.196-.26.086-.118a8.95 8.95 0 011.34-1.374l.12-.098c.166-.13-.118.086.05-.038.086-.065.175-.127.264-.19.2-.138.408-.268.618-.393.913-.526 1.77-.836 2.855-1.078 1.28-.287 2.6-.355 3.943-.308 1.425.053 2.82.34 4.1.987 2.468 1.25 4.265 3.535 4.829 6.252.166.795.222 1.61.228 2.42.006.73-.03 1.63-.133 2.22-.186 1.07-.491 1.863-1.061 2.746-.275.423-.461.66-.846 1.065a8.396 8.396 0 01-.535.51c-.088.078-.177.155-.269.232-.044.038-.091.073-.138.112.103-.08-.083.062-.104.077a11.379 11.379 0 01-2.589 1.404c-.97.363-1.981.614-3.006.762-.24.036.145-.018-.098.012l-.148.018c-.12.015-.245.026-.366.038a14.859 14.859 0 01-2.362.024c-1.708-.118-3.461-.565-4.912-1.611-.157-.115.118.098-.033-.024l-.089-.07a5.938 5.938 0 01-.638-.624c-.263-.302-.777-.27-1.046 0-.299.298-.263.745 0 1.046 1.274 1.46 3.224 2.229 5.093 2.563 2.202.393 4.495.29 6.656-.281 2.161-.57 4.233-1.623 5.746-3.27a8.87 8.87 0 001.774-2.881c.517-1.369.611-2.87.576-4.322-.041-1.684-.34-3.325-1.058-4.856a10.246 10.246 0 00-2.749-3.53c-1.156-.948-2.613-1.731-4.129-2.13-1.517-.4-3.184-.45-4.765-.331-2.418.18-4.786.878-6.704 2.403-1.354 1.079-2.338 2.53-2.973 4.132-1.29 3.248-1.044 7.28.806 10.233.506.804 1.112 1.546 1.73 2.264.26.302.777.266 1.046 0 .301-.301.26-.742 0-1.046v.003z" fill="#000"/><path id="Vector_12" d="M95.752 28.045c-1.158 1.354-1.776 2.947-2.063 4.694-.287 1.747-.49 3.58-.298 5.359.351 3.278 2.181 6.104 4.927 7.904 1.54 1.01 3.313 1.658 5.122 1.977.394.068.796-.106.911-.517.097-.358-.121-.84-.517-.91-2.788-.491-5.478-1.803-7.213-4.097a8.875 8.875 0 01-1.682-3.872c-.271-1.57-.13-3.213.08-4.783.228-1.705.639-3.375 1.783-4.711.26-.305.298-.748 0-1.047-.266-.266-.784-.304-1.047 0l-.003.003z" fill="#000"/><path id="Vector_13" d="M93.39 38.098c-.189-1.78.012-3.6.299-5.36.195-1.179.547-2.287 1.108-3.301a8.956 8.956 0 00-2.353 1.17l-.263.19-.03.023c-.005.006-.011.01-.02.018-.041.033-.083.065-.121.098a8.885 8.885 0 00-.934.892c-.13.145-.257.299-.378.453a6.192 6.192 0 00-.266.372 9.306 9.306 0 00-.799 1.442c-.014.033-.03.068-.044.104-.027.068-.056.136-.083.207-.112.29-.21.585-.295.883-.142.491-.237.985-.32 1.487a2.211 2.211 0 00-.014.14c-.01.073-.015.147-.021.22-.009.107-.012.217-.018.323-.006.127-.02.251-.032.378-.086.964.044 1.922.284 2.856.23.904.531 1.756 1.013 2.557.459.762 1.017 1.45 1.597 2.125a5.4 5.4 0 00.425.437c.068.065.139.124.213.187l.089.07c.005.003.005.006.011.01l.021.014c1.451 1.05 3.204 1.493 4.913 1.611a15.177 15.177 0 002.361-.024c.122-.011.246-.023.367-.038l.148-.018c.026-.003.041-.006.056-.006.012 0 .021-.003.041-.006.325-.047.651-.109.973-.177a13.003 13.003 0 01-2.992-1.434c-2.745-1.803-4.575-4.625-4.927-7.903h-.009z" fill="#000"/></g></g><g id="loupe"><path id="Path" d="M43.407 83.459c.811.2 1.222 1.096 1.412 1.836.269.86.1 1.796-.451 2.508-.624.832-1.518 1.488-2.255 2.226-.737.739-1.345 1.423-2.01 2.163-2.764 3.174-5.196 6.624-7.707 9.994-2.449 3.308-5.008 6.602-8.071 9.376-1.526 1.383-3.203 2.749-5.225 3.3a16.84 16.84 0 01-2.196.375c-.58.084-1.164.132-1.75.143-3.666.043-6.665-2.202-9.048-4.792-2.343-2.54-4.125-5.686-3.665-9.248a16.03 16.03 0 01.781-2.975c.675-2.011 2.366-3.444 3.979-4.725 2.959-2.35 6.392-4.043 9.8-5.643 3.623-1.7 7.302-3.262 10.808-5.136a39.66 39.66 0 004.702-2.893c.685-.502 1.305-1.087 1.983-1.588a6.185 6.185 0 012.775-1.172 3.017 3.017 0 012.528.734c.589.557-.265 1.482-.857.925-.592-.557-1.515-.486-2.273-.227a6.808 6.808 0 00-2.145 1.34 30.494 30.494 0 01-4.132 2.87c-3.234 1.91-6.674 3.438-10.08 4.997-3.35 1.534-6.728 3.072-9.852 5.048a26.983 26.983 0 00-4.07 3.121c-.756.71-1.5 1.496-1.876 2.483-.162.425-.294.867-.425 1.302a9.215 9.215 0 00-.462 3.073 8.815 8.815 0 001.31 4.118 18.648 18.648 0 004.26 4.781 10.091 10.091 0 004.133 2.165c1.11.214 2.25.232 3.366.056.588-.077 1.19-.14 1.778-.268a8.228 8.228 0 002.696-1.221 25.678 25.678 0 004.268-3.763c1.34-1.4 2.572-2.871 3.77-4.406 2.484-3.153 4.77-6.456 7.23-9.627 1.21-1.556 2.462-3.082 3.805-4.526a40.929 40.929 0 011.968-1.973c.562-.523 1.546-1.196 1.51-2.012a2.938 2.938 0 00-.233-1.012 1.894 1.894 0 00-.201-.368.543.543 0 00-.113-.124c.04.036-.122-.027 0 0-.786-.191-.518-1.422.271-1.23l-.036-.005z" fill="#000"/><path id="Combined-Shape" fill-rule="evenodd" clip-rule="evenodd" d="M99.123 31.037c-12.108-13.64-33.875-14.067-48.62-.954-14.743 13.113-16.88 34.8-4.773 48.44 12.108 13.64 33.876 14.067 48.62.954s16.881-34.8 4.773-48.44zm-2.922.296c10.707 12.063 8.255 31.742-5.478 43.955C76.991 87.5 57.18 87.624 46.471 75.56 35.764 63.5 38.216 43.822 51.95 31.607c13.73-12.213 33.544-12.337 44.25-.274z" fill="#F2F2F2" stroke="#000" stroke-linecap="round" stroke-linejoin="round"/><path id="Path_2" d="M86.25 26.998c-7.818-2.014-15.989-1.774-23.27 1.281a31.946 31.946 0 00-16.458 15.575 30.169 30.169 0 00-3.018 12.384c-.017.605-1.019.645-1.005.036.233-7.933 3.407-15.462 8.97-21.282 8.806-8.994 22.21-12.215 34.983-8.906.623.167.423 1.089-.204.922l.002-.01z" fill="#000"/><path id="Path_3" d="M47.727 80.984c-2.663 2.315-3.35 2.132-6.013 4.447a1.645 1.645 0 01-.89.492c-.483.044-.888-.334-1.223-.683-1.307-1.362-2.693-3.364-1.656-4.948a4.235 4.235 0 011.184-1.084c2.165-1.523 2.546-1.876 4.71-3.397" fill="#000"/><path id="Path_4" d="M48.08 81.325a31.63 31.63 0 01-3.58 2.608c-.63.406-1.24.846-1.826 1.316-.65.527-1.326 1.334-2.249 1.127-.839-.186-1.48-1.08-1.995-1.717a6.487 6.487 0 01-1.232-2.202 2.979 2.979 0 01.157-2.267c.43-.8 1.242-1.28 1.96-1.793 1.41-.999 2.788-2.043 4.204-3.037.53-.375 1.07.477.54.849-1.07.754-2.122 1.533-3.182 2.303-.615.449-1.245.877-1.858 1.33-.612.453-1.01.981-.974 1.736.079.704.346 1.374.774 1.939.403.67.925 1.26 1.54 1.743.378.249.642.063.95-.192.307-.256.636-.548.96-.803.5-.396 1.017-.77 1.55-1.12a32.27 32.27 0 003.502-2.521c.485-.42 1.23.271.74.683l.02.018z" fill="#000"/><path id="Vector 4" d="M88.213 69.921c3.729-2.044 7.004-8.523 8.175-11.507l.596-.38c.254.397.794 1.506.925 2.764.165 1.573-3.95 6.296-6.17 9.39-2.22 3.094-9.862 7.55-10.838 7.335-.781-.173-.76-1.192-.653-1.68 1.101-1.123 4.236-3.878 7.965-5.922z" fill="#64D6DF"/><path id="Vector 5" d="M73.145 77.858c-.39-.087-1.283.399-1.68.653-.235.29-.747 1.064-.92 1.845-.172.78.833.866 1.357.811.56-.217 1.821-.826 2.384-1.521.704-.869-.653-1.68-1.14-1.788z" fill="#64D6DF"/><path id="Path_5" d="M98.655 59.815c-.248 1.833-1.075 3.464-2.063 4.993a38.752 38.752 0 01-3.376 4.457 39.38 39.38 0 01-8.47 7.284c-1.112.71-3.114 2.275-4.456 1.234-1.275-.99-.15-2.508.813-3.197.67-.478 1.405-.866 2.088-1.32a35.46 35.46 0 002.29-1.663 36.788 36.788 0 004.032-3.706 35.888 35.888 0 006.728-10.247.517.517 0 01.63-.332 1.98 1.98 0 011.226 2.373c-.175.625-1.138.326-.963-.299a.94.94 0 00-.561-1.113l.624-.355a37.134 37.134 0 01-12.71 15.642c-.695.469-1.388.932-2.09 1.369a4.553 4.553 0 00-1.46 1.154c-.32.454-.257 1.03.418.99.756-.033 1.461-.547 2.087-.925a38.303 38.303 0 0011.79-11.12c1.085-1.587 2.148-3.303 2.404-5.238.085-.64 1.094-.606 1.008.035l.01-.017z" fill="#000"/><path id="Path_6" d="M73.22 79.906c.082.052.048.03 0 0l.103.037c.085.03-.075 0 0 0 .076 0 .085-.002.125.004.04.006-.029.002-.038.004l.057-.008a.586.586 0 01.108-.027c.05-.008-.013.02-.033.015l.05-.023c.04-.019.08-.039.118-.06.046-.028.078-.067.01-.015.02-.031.062-.048.09-.074.028-.025.04-.062.08-.08-.076.067-.011.016.02-.032l.059-.093a1.45 1.45 0 00-.022.034l.04-.063c.012-.02.018-.072.03-.108-.028.098 0 0-.005-.05-.004-.05-.007-.133 0-.076.008.057-.012-.056-.016-.074-.004-.019-.022-.078-.03-.115-.008-.037.014.009.02.013l-.034-.073-.058-.109c-.02-.037-.07-.089-.022-.014-.06-.07-.113-.136-.179-.201l-.05-.033.028.018a.749.749 0 01-.105-.067l-.159-.1c.06.037.037.023 0 0-.06-.038-.157-.053-.238-.076-.08-.023.044 0-.046-.01l-.16-.01h-.139l-.067.005a2.394 2.394 0 00-.29.062l-.134.042c.077-.027-.014.023-.05.023a2.11 2.11 0 00-.272.139 2.018 2.018 0 00-.141.085c.068-.045-.015.022-.046.034a4.117 4.117 0 00-.231.195l-.102.103-.038.06c.04-.063-.012.02 0 0a1.944 1.944 0 00-.167.263c-.018.029-.062.129-.03.049-.024.037-.05.076-.052.13-.003.054-.024.088-.034.134.018-.084-.002.047-.002.079a.541.541 0 00.028.08c.012.042.02.084.028.126.004.05 0 0-.02-.013l.025.056.068.123c-.043-.075-.014-.009.023.014a.69.69 0 00.085.086c.066.07-.06-.038.025.016l.122.078.065.041.065.042.123.038c.028.018.158.033.05.032.1.015.201.022.302.02l.065-.002c.07.002-.072.014 0 0l.17-.03.167-.05c-.065.022.067-.03.089-.039a2.68 2.68 0 00.456-.255c-.058.042.06-.045.077-.058.094-.072.186-.149.277-.223.186-.16.362-.33.537-.506a.505.505 0 11.677.749c-.742.722-1.683 1.557-2.804 1.401a2.014 2.014 0 01-1.344-.683 1.602 1.602 0 01-.232-1.605 2.991 2.991 0 012.601-1.769 2.056 2.056 0 012.115 1.847c.072 1.168-1.34 2.105-2.355 1.456a.504.504 0 01.541-.85l.026-.06z" fill="#000"/><path id="Path_7" d="M66.082 89.395c-.604-.516-.93-1.344-1.169-2.082a14.32 14.32 0 01-.522-2.303.504.504 0 111.004-.05c.012.072.024.143.038.215.015.072.01.078.02.118l-.008.032c.033.162.066.325.102.487.087.384.175.765.308 1.142.059.185.124.371.197.553.035.093.077.181.115.272l.016.038c.016.038.04.085.062.124.073.15.156.295.248.433.023.036.05.067.075.1.063.086-.06-.055.018.024.079.08.107.106.162.153a.504.504 0 11-.682.74l.016.004z" fill="#000"/><path id="Path_8" d="M74.09 88.818a10.934 10.934 0 01-1.126-2.137c-.14-.33-.273-.662-.409-.995a9.674 9.674 0 00-.183-.43l-.039-.09c.049.093-.053-.119 0 0l-.093-.183a.521.521 0 01.154-.698.51.51 0 01.695.153c.318.597.544 1.238.803 1.856a9.458 9.458 0 001.06 2 .508.508 0 01-.852.544l-.01-.02z" fill="#000"/><path id="Path_9" d="M81.876 86.943c-1.005-1.189-1.567-2.661-2.225-4.055a.507.507 0 01.326-.634.513.513 0 01.633.323c.147.314.29.631.433.948.143.317.273.587.444.93a12.07 12.07 0 00.8 1.385l.15.209.078.1.047.055c.186.189.199.49.028.694a.503.503 0 01-.694.032l-.02.013z" fill="#000"/><path id="Path_10" d="M41.63 89.962a5.419 5.419 0 01-5.07-2.228c-.378-.531.473-1.072.847-.542a4.42 4.42 0 004.178 1.765.507.507 0 01.533.462.517.517 0 01-.478.531l-.01.012z" fill="#000"/><path id="Path_11" d="M37.586 93.849a5.7 5.7 0 01-5.021-1.897.517.517 0 01-.025-.711.506.506 0 01.694-.032 4.791 4.791 0 004.285 1.634.507.507 0 01.53.461.514.514 0 01-.478.531l.015.014z" fill="#000"/><path id="Path_12" d="M32.928 97.512a5.918 5.918 0 01-4.308-2.063.52.52 0 01-.032-.695.51.51 0 01.711-.029 4.956 4.956 0 003.576 1.798.517.517 0 01.526.478.507.507 0 01-.477.527l.004-.016z" fill="#000"/><path id="Path_13" d="M28.174 100.924a5.366 5.366 0 01-3.517-2.545.514.514 0 01.153-.695.506.506 0 01.695.153 4.36 4.36 0 002.886 2.103.503.503 0 11-.217.984z" fill="#000"/><path id="Path_14" d="M24.032 104.626A8.239 8.239 0 0122 103.059a.518.518 0 01-.028-.715.507.507 0 01.71-.026c.276.293.574.563.89.809.075.065.154.125.236.18l.054.036.117.077c.167.113.343.217.521.315a.504.504 0 01-.468.891z" fill="#000"/><path id="Path_15" d="M20.231 107.399a4.025 4.025 0 01-1.542-1.183.511.511 0 01.154-.699.508.508 0 01.378-.064c.128.033.24.11.317.217l.035.043-.085-.098c.192.227.412.429.654.602l-.107-.076c.208.145.43.268.665.367a.504.504 0 01-.08.925.547.547 0 01-.389-.034z" fill="#000"/><path id="Path_16" d="M40.911 78.532c.821-.606 1.663-1.211 2.497-1.811a33.16 33.16 0 001.825 2.254 30.56 30.56 0 001.837 1.902 35.807 35.807 0 01-3.217 2.289c-.533.34-1.05.714-1.55 1.12-.328.27-.643.545-.96.802-.318.256-.572.441-.95.193a6.426 6.426 0 01-1.54-1.744 3.936 3.936 0 01-.774-1.94c-.036-.754.392-1.289.975-1.734.583-.446 1.242-.882 1.857-1.33z" fill="#000"/></g></g></svg>